<?xml version="1.0" encoding="UTF-8"?>
<svg width="346px" height="234px" viewBox="0 0 346 234" version="1.1" xmlns="http://www.w3.org/2000/svg" xmlns:xlink="http://www.w3.org/1999/xlink">
    <!-- Generator: Sketch 52.6 (67491) - http://www.bohemiancoding.com/sketch -->
    <title>4. In-Person Workshops.ai</title>
    <desc>Created with Sketch.</desc>
    <g id="Page-1" stroke="none" stroke-width="1" fill="none" fill-rule="evenodd">
        <g id="HOME-Clean" transform="translate(-548.000000, -1854.000000)">
            <g id="Build-a-Culture-of-Radical-Candor" transform="translate(0.000000, 1592.000000)">
                <g id="Group-17" transform="translate(203.000000, 122.000000)">
                    <g id="Group-3" transform="translate(311.000000, 0.000000)">
                        <g id="In-Person-Workshops" transform="translate(33.000000, 140.000000)">
                            <g id="Inperson-purple" transform="translate(1.000000, 0.000000)">
                                <g id="bgd">
                                    <path d="M193.353167,211.318618 C150.909789,212.441459 127.958925,229.014587 79.7216891,225.241843 C13.4740883,220.076775 -3.59309021,159.667946 0.673704415,117.898273 C3.59309021,89.378119 52.9980806,0 178.307102,0 C311.25144,0 345.385797,99.7082534 345.385797,149.56238 C345.385797,199.416507 315.293666,229.957774 278.015355,229.957774 C247.878311,229.957774 214.327831,210.779655 193.353167,211.318618 Z" id="Path" fill="#DBC5E8"></path>
                                    <path d="M173.366603,219.672553 C174.534357,211.09405 221.873321,216.348944 222.726679,223.265643 C223.580038,230.182342 211.09405,235.257582 196.36238,233.685605 C181.63071,232.113628 172.782726,224.119002 173.366603,219.672553 Z" id="Path" fill="#A894D3"></path>
                                    <path d="M153.604607,226.364683 C153.200384,230.496737 166.180422,232.203455 165.731286,226.364683 C165.28215,220.525912 154.053743,221.873321 153.604607,226.364683 Z" id="Path" fill="#A894D3"></path>
                                    <path d="M212.621113,105.052975 C209.028023,105.052975 205.345106,105.008061 201.662188,104.873321 C148.304798,103.076775 102.088676,87.8510557 74.8710173,63.0587332 C65.0798464,54.1658349 54.4353167,49.5397313 43.1170825,49.3600768 C42.9823417,49.3600768 42.8925144,49.2702495 42.8925144,49.1355086 C42.8925144,49.0007678 42.9823417,48.9109405 43.1170825,48.9109405 C43.1170825,48.9109405 43.1170825,48.9109405 43.1170825,48.9109405 C54.525144,49.090595 65.3044146,53.7616123 75.140499,62.7443378 C102.26833,87.446833 148.394626,102.672553 201.662188,104.469098 C225.82572,105.277543 286.144722,104.019962 324.276392,74.8261036 C324.366219,74.7362764 324.50096,74.78119 324.590787,74.8710173 C324.680614,74.9608445 324.635701,75.0955854 324.545873,75.1854127 C317.44952,80.6199616 304.873704,88.4349328 285.201536,94.7677543 C263.95739,101.594626 239.56929,105.052975 212.621113,105.052975 Z" id="Path" fill="#FFFFFF"></path>
                                    <path d="M140.804223,93.4203455 C115.787332,93.4203455 90.3662188,90.8153551 69.1220729,84.6172745 C44.8238004,77.5209213 25.9600768,80.215739 14.4172745,83.7190019 C14.2825336,83.7639155 14.1927063,83.6740883 14.1477927,83.584261 C14.1028791,83.4944338 14.1927063,83.3596929 14.2825336,83.3147793 C25.8702495,79.8115163 44.8238004,77.1166987 69.2568138,84.2130518 C114.933973,97.5523992 180.103647,94.1389635 218.235317,84.2130518 C251.157006,75.6345489 275.051056,43.3416507 283.854127,29.8675624 C283.89904,29.7777351 284.078695,29.7328215 284.168522,29.8226488 C284.258349,29.912476 284.303263,30.0472169 284.213436,30.1370441 C275.410365,43.6560461 251.426488,76.0387716 218.370058,84.6621881 C197.889443,90.0069098 169.638772,93.4203455 140.804223,93.4203455 Z" id="Path" fill="#FFFFFF"></path>
                                </g>
                                <g id="Layer_4" transform="translate(101.504798, 34.583493)">
                                    <path d="M154.233397,105.547025 L7.45566219,105.547025 C3.50326296,105.547025 0.314395393,102.358157 0.314395393,98.4057582 L0.314395393,7.14126679 C0.314395393,3.18886756 3.50326296,0 7.45566219,0 L154.233397,0 C158.185797,0 161.374664,3.18886756 161.374664,7.14126679 L161.374664,98.4057582 C161.374664,102.358157 158.185797,105.547025 154.233397,105.547025 Z" id="Path" fill="#FFAD97"></path>
                                    <path d="M138.513628,20.2560461 L31.4395393,20.2560461 C31.3047985,20.2560461 31.2149712,20.1662188 31.2149712,20.0314779 L31.2149712,9.34203455 C31.2149712,9.20729367 31.3047985,9.11746641 31.4395393,9.11746641 L138.513628,9.11746641 C138.648369,9.11746641 138.738196,9.20729367 138.738196,9.34203455 L138.738196,20.0314779 C138.738196,20.1662188 138.648369,20.2560461 138.513628,20.2560461 Z M31.6641075,19.8069098 L138.28906,19.8069098 L138.28906,9.56660269 L31.6641075,9.56660269 L31.6641075,19.8069098 Z" id="Shape" fill="#FFFFFF" fill-rule="nonzero"></path>
                                    <path d="M92.2076775,59.5554702 L66.4721689,59.5554702 C66.337428,59.5554702 66.2476008,59.465643 66.2476008,59.3309021 L66.2476008,42.3984645 C66.2476008,42.2637236 66.337428,42.1738964 66.4721689,42.1738964 L92.2076775,42.1738964 C92.3424184,42.1738964 92.4322457,42.2637236 92.4322457,42.3984645 L92.4322457,59.3309021 C92.4322457,59.465643 92.2975048,59.5554702 92.2076775,59.5554702 Z M66.696737,59.106334 L91.9831094,59.106334 L91.9831094,42.6230326 L66.696737,42.6230326 L66.696737,59.106334 Z" id="Shape" fill="#FFFFFF" fill-rule="nonzero"></path>
                                    <path d="M152.212284,73.703263 L114.439923,73.703263 C114.305182,73.703263 114.215355,73.6134357 114.215355,73.4786948 L114.215355,51.6506718 C114.215355,51.5159309 114.305182,51.4261036 114.439923,51.4261036 L152.212284,51.4261036 C152.347025,51.4261036 152.436852,51.5159309 152.436852,51.6506718 L152.436852,73.4786948 C152.436852,73.6134357 152.347025,73.703263 152.212284,73.703263 Z M114.664491,73.2541267 L151.987716,73.2541267 L151.987716,51.8752399 L114.664491,51.8752399 L114.664491,73.2541267 Z" id="Shape" fill="#FFFFFF" fill-rule="nonzero"></path>
                                    <path d="M59.0614203,73.7481766 L9.88099808,73.7481766 C9.7462572,73.7481766 9.61151631,73.6134357 9.61151631,73.4786948 L9.61151631,58.7919386 C9.61151631,58.6571977 9.7462572,58.5224568 9.88099808,58.5224568 L59.0614203,58.5224568 C59.1961612,58.5224568 59.3309021,58.6571977 59.3309021,58.7919386 L59.3309021,73.4786948 C59.3309021,73.6134357 59.1961612,73.7481766 59.0614203,73.7481766 Z M10.1504798,73.2092131 L58.7919386,73.2092131 L58.7919386,59.0614203 L10.1504798,59.0614203 L10.1504798,73.2092131 Z" id="Shape" fill="#FFFFFF" fill-rule="nonzero"></path>
                                    <path d="M17.6959693,22.0525912 C17.606142,22.0525912 17.4714012,22.0525912 17.3815739,22.0525912 C13.5190019,21.8729367 10.5547025,18.4145873 10.7792706,14.3723608 C10.9589251,10.3301344 14.23762,7.18618042 18.1001919,7.36583493 C21.9627639,7.54548944 24.9270633,11.0038388 24.7024952,15.0460653 C24.6126679,17.0222649 23.8042226,18.81881 22.4119002,20.1213052 C21.109405,21.3788868 19.4476008,22.0525912 17.6959693,22.0525912 Z M11.2284069,14.3723608 C11.0487524,18.1900192 13.8333973,21.4238004 17.4264875,21.5585413 C19.178119,21.6483685 20.8399232,21.0195777 22.1424184,19.7619962 C23.4449136,18.5044146 24.2084453,16.7976967 24.2982726,14.956238 C24.4779271,11.1385797 21.6932821,7.90479846 18.1001919,7.77005758 C14.4621881,7.6353167 11.4080614,10.5996161 11.2284069,14.3723608 Z" id="Shape" fill="#FFFFFF" fill-rule="nonzero"></path>
                                </g>
                                <g id="Woman_x5F_3" transform="translate(170.222649, 64.226488)">
                                    <path d="M25.9151631,52.5040307 C25.9151631,52.5040307 18.459501,45.9017274 17.6510557,44.2399232 C16.9324376,42.7577735 17.6510557,40.5120921 15.5850288,39.7036468 C13.9232246,38.8952015 12.2614203,38.0418426 11.8571977,36.8291747 C11.452975,35.5715931 10.1953935,34.7631478 9.79117083,35.1673704 C9.38694818,35.5715931 9.79117083,35.9758157 10.5996161,37.2333973 C11.4080614,38.4909789 11.8571977,39.7036468 11.0038388,39.7036468 C10.1953935,39.7036468 6.87178503,39.2994242 6.87178503,39.2994242 C6.87178503,39.2994242 3.14395393,36.424952 2.73973129,36.424952 C2.33550864,36.424952 1.93128599,36.8291747 1.93128599,36.8291747 L3.18886756,38.4909789 C3.18886756,38.4909789 1.93128599,37.2333973 1.12284069,37.2333973 C0.314395393,37.2333973 0.314395393,37.63762 0.314395393,37.63762 C0.314395393,37.63762 3.63800384,40.9612284 5.25489443,42.1738964 C6.91669866,43.4314779 11.8571977,43.8357006 13.1147793,45.4975048 C14.3723608,47.159309 20.5704415,55.4234165 23.8491363,57.893666 C27.1727447,60.3639155 29.6429942,55.3785029 25.9151631,52.5040307 Z" id="Path" fill="#A894D3"></path>
                                    <path d="M40.4222649,32.3378119 C40.287524,31.9335893 38.6257198,30.0921305 35.9309021,30.5412668 C33.2360845,30.9904031 29.193858,47.6084453 28.7447217,48.9558541 C28.2955854,50.303263 28.7447217,50.7523992 28.7447217,50.7523992 C28.7447217,50.7523992 28.2955854,50.303263 27.8464491,50.303263 C27.3973129,50.303263 27.3973129,51.2015355 26.9481766,51.2015355 C26.4990403,51.2015355 26.9481766,50.7523992 26.049904,50.303263 C25.1516315,49.8541267 23.3550864,48.5067179 23.3550864,48.5067179 L18.4145873,53.8963532 C18.4145873,53.8963532 25.1516315,63.328215 29.6429942,62.8790787 C34.134357,62.4299424 37.7274472,52.0998081 39.5239923,44.4644914 C41.3205374,36.8291747 41.3205374,35.0326296 40.4222649,32.3378119 Z" id="Path" fill="#6D359E"></path>
                                    <g id="Group" transform="translate(30.092131, 26.049904)">
                                        <path d="M8.98272553,4.94049904 C8.98272553,4.94049904 12.5758157,3.59309021 16.168906,2.69481766 C19.7619962,1.79654511 26.4990403,2.69481766 26.4990403,2.69481766 C26.4990403,2.69481766 27.3973129,1.11022302e-16 30.0921305,0.449136276 C32.7869482,0.898272553 33.6852207,9.4318618 37.7274472,14.8214971 C41.7696737,20.2111324 44.4644914,25.6007678 44.4644914,26.9481766 C44.4644914,28.2955854 36.8291747,45.8119002 36.8291747,45.8119002 L30.9904031,44.0153551 C30.9904031,44.0153551 35.4817658,32.3378119 35.0326296,31.4395393 C34.5834933,30.5412668 34.134357,30.5412668 34.134357,30.0921305 C34.134357,29.193858 35.4817658,29.193858 35.4817658,28.7447217 C35.4817658,28.2955854 34.6733205,28.9692898 34.5834933,28.7447217 C34.493666,28.5201536 35.0775432,27.8015355 34.8978887,27.4871401 C33.4606526,24.8821497 29.6429942,19.3128599 29.6429942,19.3128599 C29.6429942,19.3128599 29.193858,26.4990403 27.8464491,31.4395393 C26.4990403,36.3800384 30.5412668,45.3627639 31.8886756,49.8541267 C33.2360845,54.3454894 34.5834933,81.293666 34.5834933,81.293666 L0,81.293666 C0,81.293666 1.34740883,57.4894434 4.94049904,48.5067179 C8.53358925,39.5239923 5.83877159,26.9481766 5.83877159,26.9481766 C5.83877159,26.9481766 2.78464491,24.6575816 3.59309021,20.6602687 C4.04222649,18.4145873 4.94049904,17.5163148 6.28790787,13.024952 C7.6353167,8.53358925 6.73704415,6.28790787 8.98272553,4.94049904 Z" id="Path" fill="#6D359E"></path>
                                        <path d="M6.10825336,28.7447217 C6.0184261,28.7447217 5.88368522,28.6548944 5.88368522,28.5650672 C5.74894434,27.8015355 5.65911708,27.3074856 5.61420345,27.0829175 C5.16506718,26.6786948 2.6049904,24.3880998 3.36852207,20.6153551 C3.59309021,19.4925144 3.95239923,18.6840691 4.35662188,17.6510557 C4.80575816,16.5731286 5.38963532,15.2257198 6.06333973,12.9351248 C6.10825336,12.8003839 6.24299424,12.7554702 6.3328215,12.8003839 C6.46756238,12.8452975 6.51247601,12.9800384 6.46756238,13.0698656 C5.79385797,15.3604607 5.20998081,16.7527831 4.76084453,17.8307102 C4.31170825,18.8637236 3.99731286,19.6272553 3.77274472,20.7051823 C3.00921305,24.5228407 5.88368522,26.7685221 5.92859885,26.7685221 C5.97351248,26.8134357 6.0184261,26.8583493 6.0184261,26.903263 C6.0184261,26.903263 6.15316699,27.4871401 6.28790787,28.4752399 C6.37773512,28.6099808 6.28790787,28.6998081 6.10825336,28.7447217 C6.15316699,28.7447217 6.10825336,28.7447217 6.10825336,28.7447217 Z" id="Path" fill="#333333"></path>
                                        <path d="M29.6429942,19.537428 C29.5980806,19.537428 29.5082534,19.4925144 29.4633397,19.4476008 L27.2176583,16.7527831 C27.1278311,16.6629559 27.1727447,16.528215 27.262572,16.4383877 C27.3523992,16.3485605 27.4871401,16.3934741 27.5769674,16.4833013 L29.8226488,19.178119 C29.912476,19.2679463 29.8675624,19.4026871 29.7777351,19.4925144 C29.7328215,19.537428 29.6879079,19.537428 29.6429942,19.537428 Z" id="Path" fill="#333333"></path>
                                        <path d="M31.3946257,44.1051823 C30.8556622,45.1381958 29.9573896,46.6652591 29.0591171,47.7880998 C27.5769674,49.6295585 27.5769674,51.4710173 27.5769674,52.9082534 C27.5769674,54.3454894 27.9362764,57.3097889 27.9362764,57.3097889 C27.9362764,57.3097889 29.0142035,57.3097889 29.0142035,56.2318618 C29.0142035,55.1539347 29.0142035,53.312476 29.7328215,53.312476 C30.4514395,53.312476 31.9335893,55.8725528 32.2928983,56.9953935 C32.6522073,58.0733205 31.5742802,59.9147793 31.5742802,60.6783109 C31.5742802,61.4418426 31.9335893,61.396929 31.9335893,61.396929 L33.775048,58.4775432 C33.775048,58.4775432 33.0564299,60.6783109 33.0564299,61.396929 C33.0564299,62.115547 33.415739,62.115547 33.415739,62.115547 L34.8978887,58.4326296 C34.8978887,58.4326296 34.5385797,60.9927063 34.8978887,61.3520154 C35.2571977,61.7113244 35.6165067,61.7113244 35.6165067,61.7113244 L35.9758157,58.4326296 C35.9758157,58.4326296 35.9758157,60.6333973 36.3351248,60.9927063 C36.6944338,61.3520154 37.0537428,60.9927063 37.0537428,60.9927063 C37.0537428,60.9927063 37.4130518,58.0733205 37.0537428,56.5911708 C36.6944338,55.1090211 34.134357,51.4710173 33.775048,49.6295585 C33.5055662,48.2372361 34.2690979,46.6652591 34.9877159,45.0483685 C35.0326296,45.0034549 31.3946257,44.1051823 31.3946257,44.1051823 Z" id="Path" fill="#A894D3"></path>
                                    </g>
                                    <path d="M47.2042226,31.9785029 C48.8211132,31.5742802 49.7642994,29.912476 49.3600768,28.2955854 L46.7550864,18.459501 C46.3508637,16.8426104 44.6890595,15.8994242 43.0721689,16.3036468 C41.4552783,16.7078695 40.5120921,18.3696737 40.9163148,19.9865643 L43.5213052,29.8226488 C43.9255278,31.4395393 45.5873321,32.4276392 47.2042226,31.9785029 Z" id="Path" fill="#A894D3"></path>
                                    <g id="Group" transform="translate(33.236084, 0.000000)">
                                        <path d="M4.40153551,9.7462572 C2.33550864,14.6418426 0.94318618,25.0618042 6.28790787,26.4990403 C9.52168906,27.3523992 14.5520154,23.4898273 15.9892514,21.7381958 C17.3815739,20.0314779 20.0763916,15.7197697 19.6721689,12.3512476 C18.9535509,5.61420345 7.59040307,2.20076775 4.40153551,9.7462572 Z" id="Path" fill="#A894D3"></path>
                                        <path d="M9.34203455,26.4541267 C9.25220729,26.4541267 9.16238004,26.4092131 9.11746641,26.3193858 C9.07255278,26.1846449 9.16238004,26.0948177 9.25220729,26.049904 C10.6894434,25.5558541 12.0368522,24.7474088 12.8902111,24.118618 C12.9800384,24.0287908 13.1147793,24.0737044 13.2046065,24.1635317 C13.2944338,24.2533589 13.2495202,24.3880998 13.1596929,24.4779271 C12.2614203,25.1067179 10.8690979,25.9600768 9.38694818,26.4541267 C9.38694818,26.4541267 9.34203455,26.4541267 9.34203455,26.4541267 Z" id="Path" fill="#333333"></path>
                                        <circle id="Oval" fill="#333333" cx="18.9984645" cy="4.98541267" r="4.80575816"></circle>
                                        <path d="M9.97082534,9.70134357 C9.97082534,7.05143954 12.1266795,4.89558541 14.7765835,4.89558541 C17.4264875,4.89558541 19.5823417,7.05143954 19.5823417,9.70134357 C19.5823417,12.3512476 17.0671785,12.1266795 14.4172745,12.1266795 C11.7673704,12.1266795 9.97082534,12.3512476 9.97082534,9.70134357 Z" id="Path" fill="#6D359E"></path>
                                        <path d="M15.0460653,23.2203455 C18.9086372,23.2203455 21.3788868,16.2587332 20.3458733,11.6775432 C18.9535509,5.61420345 10.3301344,2.29059501 5.29980806,6.8268714 C5.29980806,6.8268714 2.24568138,4.94049904 0.449136276,7.6353167 C-0.494049904,9.07255278 0.224568138,11.5877159 2.02111324,12.1266795 C3.59309021,12.5758157 5.07523992,12.2614203 5.83877159,10.7792706 C5.79385797,15.8545106 12.0817658,13.5190019 13.024952,12.5758157 C11.5877159,14.5071017 13.384261,18.0103647 14.8214971,17.5163148 C14.8214971,17.5163148 13.7435701,23.2203455 15.0460653,23.2203455 Z" id="Path" fill="#333333"></path>
                                        <g transform="translate(13.024952, 17.516315)" id="Path">
                                            <path d="M0.76353167,1.34740883 C1.07792706,0.898272553 2.38042226,0.0898272553 3.63800384,0.583877159 C5.5243762,1.3024952 3.68291747,4.94049904 1.25758157,3.95239923 C-0.179654511,3.36852207 0.449136276,1.79654511 0.76353167,1.34740883 Z" fill="#A894D3"></path>
                                            <path d="M1.52706334,2.15585413 C1.48214971,2.15585413 1.39232246,2.15585413 1.34740883,2.1109405 C1.25758157,2.02111324 1.25758157,1.88637236 1.34740883,1.79654511 C1.88637236,1.25758157 2.9193858,0.988099808 3.68291747,1.52706334 C3.77274472,1.6168906 3.81765835,1.75163148 3.72783109,1.84145873 C3.63800384,1.93128599 3.50326296,1.97619962 3.4134357,1.88637236 C2.82955854,1.48214971 2.06602687,1.66180422 1.66180422,2.06602687 C1.6168906,2.15585413 1.57197697,2.15585413 1.52706334,2.15585413 Z" fill="#333333"></path>
                                        </g>
                                        <path d="M4.26679463,15.0909789 C3.86257198,14.956238 3.50326296,15.2706334 3.23378119,14.956238 C3.36852207,15.1808061 3.50326296,15.3604607 3.68291747,15.4952015 C3.59309021,15.6299424 3.54817658,15.7646833 3.54817658,15.9443378 C3.45834933,16.4383877 3.63800384,16.887524 3.95239923,16.9324376 C4.26679463,16.9773512 4.58119002,16.6180422 4.67101727,16.1239923 C4.7159309,15.6299424 4.53627639,15.1808061 4.26679463,15.0909789 Z" id="Path" fill="#333333"></path>
                                        <path d="M9.88099808,15.6299424 C9.47677543,15.4952015 9.11746641,15.8095969 8.84798464,15.4952015 C8.98272553,15.7197697 9.11746641,15.8994242 9.29712092,16.0341651 C9.20729367,16.168906 9.16238004,16.3036468 9.16238004,16.4833013 C9.07255278,16.9773512 9.25220729,17.4264875 9.56660269,17.4714012 C9.88099808,17.5163148 10.1953935,17.1570058 10.2852207,16.6629559 C10.3301344,16.1239923 10.1953935,15.674856 9.88099808,15.6299424 Z" id="Path" fill="#333333"></path>
                                        <path d="M5.5243762,20.0314779 C5.16506718,20.0314779 4.80575816,19.9865643 4.62610365,19.8518234 C4.53627639,19.7619962 4.49136276,19.6721689 4.49136276,19.537428 C4.49136276,19.3577735 4.62610365,19.0882917 4.89558541,18.5044146 C5.38963532,17.5163148 6.10825336,16.0341651 6.06333973,14.8214971 C6.06333973,14.6867562 6.15316699,14.596929 6.28790787,14.596929 C6.42264875,14.596929 6.51247601,14.6867562 6.51247601,14.8214971 C6.60230326,16.168906 5.83877159,17.6959693 5.29980806,18.7289827 C5.12015355,19.0882917 4.94049904,19.4476008 4.94049904,19.5823417 C5.0303263,19.6721689 5.65911708,19.6721689 6.24299424,19.5823417 C6.37773512,19.5823417 6.46756238,19.6721689 6.51247601,19.7619962 C6.51247601,19.896737 6.42264875,19.9865643 6.3328215,20.0314779 C6.15316699,19.9865643 5.83877159,20.0314779 5.5243762,20.0314779 Z" id="Path" fill="#333333"></path>
                                        <path d="M3.14395393,14.596929 C3.09904031,14.596929 3.00921305,14.5520154 2.96429942,14.5071017 C2.87447217,14.4172745 2.87447217,14.2825336 2.96429942,14.1927063 C3.50326296,13.6986564 4.31170825,13.5190019 5.38963532,13.6986564 C5.5243762,13.6986564 5.61420345,13.8333973 5.56928983,13.9681382 C5.56928983,14.1028791 5.43454894,14.1927063 5.29980806,14.1477927 C4.35662188,14.0130518 3.68291747,14.1477927 3.23378119,14.5520154 C3.23378119,14.596929 3.18886756,14.596929 3.14395393,14.596929 Z" id="Path" fill="#333333"></path>
                                        <g transform="translate(3.593090, 20.211132)">
                                            <path d="M2.69481766,3.14395393 C1.34740883,3.14395393 0.673704415,1.57197697 0.673704415,1.57197697 C2.02111324,2.47024952 3.9074856,2.15585413 4.94049904,0.449136276 C4.94049904,0.449136276 4.04222649,3.14395393 2.69481766,3.14395393 Z" id="Path" fill="#FFFFFF"></path>
                                            <path d="M2.69481766,3.36852207 C1.21266795,3.36852207 0.494049904,1.75163148 0.449136276,1.66180422 C0.404222649,1.57197697 0.449136276,1.48214971 0.494049904,1.39232246 C0.583877159,1.34740883 0.673704415,1.3024952 0.76353167,1.39232246 C1.34740883,1.79654511 2.06602687,1.93128599 2.78464491,1.79654511 C3.54817658,1.6168906 4.26679463,1.12284069 4.7159309,0.359309021 C4.76084453,0.269481766 4.89558541,0.224568138 4.98541267,0.269481766 C5.07523992,0.314395393 5.12015355,0.449136276 5.12015355,0.538963532 C5.12015355,0.628790787 4.17696737,3.36852207 2.69481766,3.36852207 Z M1.25758157,2.1109405 C1.57197697,2.51516315 2.02111324,2.9193858 2.69481766,2.9193858 C3.27869482,2.9193858 3.77274472,2.29059501 4.13205374,1.66180422 C3.77274472,1.93128599 3.32360845,2.15585413 2.87447217,2.24568138 C2.33550864,2.33550864 1.79654511,2.29059501 1.25758157,2.1109405 Z" id="Shape" fill="#333333" fill-rule="nonzero"></path>
                                        </g>
                                        <path d="M11.2284069,15.4952015 C11.1834933,15.4952015 11.093666,15.4952015 11.0487524,15.4502879 C10.1953935,14.596929 9.20729367,14.5071017 8.53358925,14.596929 C8.39884837,14.596929 8.30902111,14.5071017 8.26410749,14.4172745 C8.21919386,14.3274472 8.35393474,14.1927063 8.443762,14.1477927 C9.20729367,14.0579655 10.3301344,14.1028791 11.3182342,15.0909789 C11.4080614,15.1808061 11.4080614,15.315547 11.3182342,15.4053743 C11.3631478,15.4952015 11.2733205,15.4952015 11.2284069,15.4952015 Z" id="Path" fill="#333333"></path>
                                    </g>
                                </g>
                                <g id="Man_x5F_3" transform="translate(112.284069, 59.285988)">
                                    <path d="M15.2706334,74.1074856 C13.024952,86.6833013 15.2706334,92.9712092 11.6775432,107.792706 L42.21881,105.996161 L39.9731286,73.6583493 L15.2706334,74.1074856 Z" id="Path" fill="#333333"></path>
                                    <path d="M27.8464491,104.873321 C27.8464491,104.873321 27.8464491,104.873321 27.8464491,104.873321 C27.7117083,104.873321 27.621881,104.783493 27.621881,104.648752 L28.5201536,85.3358925 C28.5201536,85.2909789 28.5650672,85.2011516 28.6099808,85.156238 L30.4065259,83.8088292 C30.4963532,83.7190019 30.631094,83.7639155 30.7209213,83.8537428 C30.8107486,83.9435701 30.7658349,84.0783109 30.6760077,84.1681382 L28.9692898,85.4706334 L28.0710173,104.693666 C28.0710173,104.783493 27.98119,104.873321 27.8464491,104.873321 Z" id="Path" fill="#FFFFFF"></path>
                                    <path d="M26.4990403,31.6191939 L25.5109405,31.3497121 C23.6694818,30.8556622 22.5466411,28.9692898 23.040691,27.1278311 L25.4211132,18.1451056 C25.9151631,16.3036468 27.8015355,15.1808061 29.6429942,15.674856 L30.631094,15.9443378 C32.4725528,16.4383877 33.5953935,18.3247601 33.1013436,20.1662188 L30.7209213,29.1489443 C30.2268714,30.9904031 28.340499,32.0683301 26.4990403,31.6191939 Z" id="Path" fill="#8285C4"></path>
                                    <path d="M9.88099808,83.0902111 C11.6775432,83.7190019 11.9919386,86.7731286 11.9021113,88.0756238 C11.8122841,89.378119 12.665643,91.668714 12.665643,92.6568138 C12.665643,92.881382 12.6207294,93.0610365 12.5758157,93.1957774 C12.4410749,93.5550864 11.9021113,93.5550864 11.7224568,93.1957774 L10.4199616,90.5458733 C10.4199616,90.5458733 9.92591171,92.028023 10.1953935,93.1508637 C10.4648752,94.2737044 10.9589251,95.7558541 11.0487524,96.4295585 C11.1385797,97.103263 11.2284069,97.3727447 11.0487524,97.6422265 C10.9589251,97.821881 10.6894434,97.8667946 10.5097889,97.7320537 L9.83608445,97.0134357 C9.83608445,97.0134357 10.1953935,98.3608445 10.0606526,98.6303263 C9.97082534,98.8099808 9.70134357,98.8548944 9.52168906,98.7201536 L8.84798464,98.0015355 C8.84798464,98.0015355 9.02763916,98.4057582 8.9378119,98.7201536 C8.89289827,98.8099808 8.84798464,98.8548944 8.80307102,98.9447217 C8.62341651,99.1243762 8.35393474,99.0794626 8.26410749,98.8548944 L7.77005758,98.3159309 C7.77005758,98.3159309 7.77005758,98.3159309 7.68023033,98.6303263 C7.6353167,98.7201536 7.59040307,98.7650672 7.54548944,98.8548944 C7.36583493,99.0345489 7.09635317,98.9896353 7.00652591,98.7650672 C6.51247601,97.7769674 5.25489443,95.6211132 4.85067179,94.318618 C4.35662188,92.7466411 5.34472169,85.3808061 6.37773512,84.0333973 C6.87178503,83.1800384 8.71324376,82.6859885 9.88099808,83.0902111 Z" id="Path" fill="#8285C4"></path>
                                    <path d="M83.5393474,69.3466411 C83.5393474,68.628023 79.1378119,67.3255278 77.7904031,66.5170825 C77.3861804,66.2476008 76.9370441,65.8433781 76.3980806,65.3942418 C76.6675624,65.4840691 76.9819578,65.61881 77.2514395,65.7535509 C78.2395393,66.2026871 79.5420345,66.4721689 79.9013436,65.978119 C80.1708253,65.61881 79.8564299,65.0349328 78.0149712,64.3163148 C76.1735125,63.6426104 75.8142035,62.7443378 72.490595,61.8460653 C70.4694818,61.3071017 68.628023,62.3401152 67.9992322,63.3731286 C67.7297505,63.8222649 58.1182342,63.9120921 58.3877159,64.2264875 C58.5673704,65.1696737 58.3877159,67.1907869 59.7351248,67.8195777 C59.9596929,67.909405 68.9424184,67.2806142 69.1669866,67.3704415 C69.840691,67.5950096 76.0836852,69.9754319 76.6675624,70.1550864 C77.2514395,70.3347409 82.0571977,70.7389635 82.3715931,70.2898273 C82.6859885,69.840691 81.2038388,69.3915547 81.2038388,69.3915547 C81.2038388,69.3915547 83.5393474,70.0203455 83.5393474,69.3466411 Z" id="Path" fill="#8285C4"></path>
                                    <g id="Group" transform="translate(0.000000, 24.702495)">
                                        <g transform="translate(0.000000, 2.245681)">
                                            <path d="M10.1055662,4.7159309 C10.1055662,4.7159309 15.5850288,1.66180422 22.0525912,0.583877159 C23.4449136,0.359309021 25.7355086,1.57197697 27.1727447,1.57197697 C28.7447217,1.57197697 30.7209213,0.583877159 30.7209213,0.583877159 C36.4698656,1.52706334 40.5570058,4.17696737 41.9942418,5.61420345 C43.7907869,7.41074856 48.2821497,31.6641075 48.2821497,31.6641075 C48.2821497,31.6641075 62.6545106,33.0115163 64.4510557,34.3589251 C64.6307102,34.493666 64.7654511,34.6284069 64.9001919,34.7631478 C65.0349328,34.8978887 67.4153551,35.1224568 67.5051823,35.3021113 C68.1788868,36.5596929 67.7746641,39.2994242 67.2357006,40.646833 C67.1458733,40.9163148 64.7205374,41.1857965 64.5857965,41.4103647 C64.4510557,41.6349328 64.2264875,41.8145873 64.046833,41.9942418 C62.2502879,43.3416507 44.7339731,42.8925144 42.937428,42.4433781 C41.1408829,41.9942418 40.6917466,37.0537428 40.6917466,37.0537428 C40.6917466,37.0537428 41.5900192,46.4856046 40.2426104,48.2821497 C38.8952015,50.0786948 15.9892514,52.3243762 14.6418426,49.1804223 C13.2944338,46.0364683 14.6418426,24.9270633 14.6418426,24.9270633 L11.0487524,35.2571977 C11.0487524,35.2571977 13.7435701,50.5278311 12.8452975,52.3243762 C12.3961612,53.2226488 11.947025,53.671785 11.947025,53.671785 C11.6775432,55.243762 11.947025,57.2648752 11.947025,57.2648752 L4.76084453,58.1631478 L3.86257198,54.5700576 C3.86257198,54.5700576 1.6168906,54.5700576 1.16775432,47.8330134 C0.718618042,41.0959693 0.269481766,35.706334 0.269481766,32.1132438 C0.269481766,28.5201536 7.41074856,6.06333973 10.1055662,4.7159309 Z" id="Path" fill="#FFFFFF"></path>
                                            <path d="M4.7159309,58.3877159 C4.62610365,58.3877159 4.53627639,58.2978887 4.49136276,58.2080614 L3.63800384,54.7497121 C3.05412668,54.6149712 1.3024952,53.671785 0.898272553,47.8330134 C0.808445298,46.3059501 0.673704415,44.868714 0.583877159,43.4763916 C0.269481766,38.6706334 0,34.852975 0,32.0683301 C0,28.2955854 7.23109405,5.88368522 10.015739,4.49136276 C10.1953935,4.40153551 15.674856,1.39232246 22.0525912,0.359309021 C22.8610365,0.224568138 23.9389635,0.538963532 24.971977,0.853358925 C25.8253359,1.12284069 26.5888676,1.34740883 27.1727447,1.34740883 C28.6998081,1.34740883 30.631094,0.404222649 30.631094,0.404222649 C30.6760077,0.404222649 30.7209213,0.359309021 30.7658349,0.404222649 C36.7393474,1.39232246 40.8264875,4.17696737 42.1289827,5.47946257 C43.8806142,7.23109405 48.0126679,29.1489443 48.4618042,31.484453 C50.1685221,31.6641075 62.8341651,32.9216891 64.5857965,34.2241843 C64.7654511,34.3589251 64.9001919,34.493666 65.0349328,34.6733205 C65.1696737,34.7182342 65.7086372,34.8080614 66.1128599,34.852975 C67.3704415,35.0326296 67.5950096,35.0775432 67.6848369,35.2571977 C68.4034549,36.5596929 67.9992322,39.3892514 67.4153551,40.8264875 C67.3255278,41.0510557 67.0111324,41.1408829 65.7984645,41.3654511 C65.3942418,41.4552783 64.8103647,41.5451056 64.6756238,41.6349328 C64.5408829,41.859501 64.3163148,42.0840691 64.0917466,42.21881 C62.2053743,43.6111324 44.7339731,43.2069098 42.8026871,42.7128599 C41.9942418,42.4882917 41.4103647,41.5451056 41.0510557,40.4671785 C41.1857965,43.3865643 41.1857965,47.3389635 40.3324376,48.4618042 C39.1197697,50.0337812 24.6126679,51.6057582 18.1001919,50.7973129 C15.8994242,50.5278311 14.6418426,50.0337812 14.3274472,49.3151631 C13.1596929,46.6203455 13.9232246,31.6191939 14.1927063,26.5888676 L11.1385797,35.347025 C11.452975,37.1884837 13.7884837,50.7074856 12.8902111,52.5040307 C12.5309021,53.2675624 12.1266795,53.7166987 11.9919386,53.8514395 C11.7673704,55.3785029 11.9919386,57.3097889 11.9919386,57.3097889 C11.9919386,57.4445298 11.9021113,57.534357 11.8122841,57.5792706 L4.7159309,58.3877159 C4.7159309,58.3877159 4.7159309,58.3877159 4.7159309,58.3877159 Z M22.4568138,0.808445298 C22.3220729,0.808445298 22.2322457,0.808445298 22.0975048,0.853358925 C15.7646833,1.88637236 10.2852207,4.94049904 10.1953935,4.94049904 C10.1953935,4.94049904 10.1953935,4.94049904 10.1953935,4.94049904 C7.6353167,6.24299424 0.449136276,28.5201536 0.449136276,32.1581574 C0.449136276,34.9428023 0.718618042,38.715547 1.03301344,43.5213052 C1.12284069,44.9136276 1.21266795,46.3508637 1.34740883,47.8779271 C1.75163148,54.2556622 3.81765835,54.3904031 3.81765835,54.3904031 C3.9074856,54.3904031 3.99731286,54.4802303 4.04222649,54.5700576 L4.89558541,57.9834933 L11.6775432,57.1301344 C11.6326296,56.5462572 11.4978887,54.9742802 11.7224568,53.671785 C11.7224568,53.6268714 11.7673704,53.5819578 11.7673704,53.5370441 C11.7673704,53.5370441 12.2165067,53.0879079 12.6207294,52.2345489 C13.3393474,50.7973129 11.5428023,39.5239923 10.8241843,35.3021113 C10.8241843,35.2571977 10.8241843,35.2122841 10.8241843,35.1673704 L14.4172745,24.8372361 C14.4621881,24.7474088 14.5520154,24.6575816 14.6867562,24.7024952 C14.7765835,24.7024952 14.8664107,24.8372361 14.8664107,24.9270633 C14.8664107,25.1516315 13.5190019,46.0364683 14.8664107,49.090595 C15.0011516,49.4049904 15.6299424,49.9888676 18.2798464,50.303263 C25.4211132,51.1566219 39.1646833,49.3600768 40.1078695,48.1474088 C41.1408829,46.7550864 40.7815739,39.7934741 40.5120921,37.1435701 C40.5120921,37.0986564 40.5120921,37.0986564 40.5120921,37.0986564 C40.5120921,36.9639155 40.6019194,36.8740883 40.7366603,36.8740883 C40.8714012,36.8740883 40.9612284,36.9639155 40.9612284,37.0986564 C40.9612284,37.0986564 40.9612284,37.0986564 40.9612284,37.0986564 C40.9612284,37.0986564 40.9612284,37.1435701 40.9612284,37.1435701 C41.0959693,38.4909789 41.7247601,41.9493282 43.0272553,42.2637236 C45.0483685,42.7577735 62.3401152,43.0721689 63.9570058,41.859501 C64.1366603,41.7247601 64.3163148,41.5451056 64.4510557,41.3205374 C64.5857965,41.1408829 64.9001919,41.0959693 65.7984645,40.9163148 C66.2026871,40.8264875 66.9213052,40.6917466 67.1009597,40.6019194 C67.6399232,39.2994242 67.9992322,36.6944338 67.4153551,35.5266795 C67.2357006,35.4368522 66.6069098,35.347025 66.1577735,35.3021113 C65.0798464,35.1673704 64.9001919,35.1224568 64.8103647,34.9877159 C64.6756238,34.852975 64.5408829,34.7182342 64.406142,34.5834933 C63.0138196,33.5504798 53.312476,32.3827255 48.371977,31.9335893 C48.2821497,31.9335893 48.1923225,31.843762 48.1923225,31.7539347 C46.9347409,25.0168906 43.3865643,7.27600768 41.9493282,5.83877159 C40.6917466,4.58119002 36.6944338,1.88637236 30.9005758,0.898272553 C30.5412668,1.07792706 28.7896353,1.88637236 27.3074856,1.88637236 C26.6337812,1.88637236 25.8253359,1.66180422 24.971977,1.39232246 C23.9838772,1.03301344 23.1305182,0.808445298 22.4568138,0.808445298 Z" id="Shape" fill="#333333" fill-rule="nonzero"></path>
                                        </g>
                                        <path d="M5.38963532,56.815739 C5.25489443,56.815739 5.16506718,56.7259117 5.16506718,56.6360845 C5.16506718,56.5013436 5.25489443,56.4115163 5.34472169,56.4115163 L11.8571977,55.7378119 C11.9919386,55.7378119 12.0817658,55.8276392 12.0817658,55.9174664 C12.0817658,56.0522073 11.9919386,56.1420345 11.9021113,56.1420345 L5.38963532,56.815739 C5.38963532,56.815739 5.38963532,56.815739 5.38963532,56.815739 Z" id="Path" fill="#333333"></path>
                                        <g transform="translate(39.973129, 8.084453)" id="Path">
                                            <path d="M1.34740883,0.449136276 L0.449136276,4.49136276" fill="#FFFFFF"></path>
                                            <path d="M0.449136276,4.7159309 C0.449136276,4.7159309 0.404222649,4.7159309 0.404222649,4.7159309 C0.269481766,4.67101727 0.224568138,4.58119002 0.224568138,4.44644914 L1.12284069,0.404222649 C1.16775432,0.269481766 1.25758157,0.224568138 1.39232246,0.224568138 C1.52706334,0.269481766 1.57197697,0.359309021 1.57197697,0.494049904 L0.673704415,4.53627639 C0.628790787,4.62610365 0.538963532,4.7159309 0.449136276,4.7159309 Z" fill="#333333"></path>
                                        </g>
                                        <g transform="translate(28.295585, 3.143954)" id="Path">
                                            <path d="M0.449136276,0.449136276 C0.449136276,0.449136276 1.34740883,11.2284069 1.79654511,22.4568138 C2.24568138,33.6852207 2.69481766,44.0153551 2.69481766,45.8119002 C2.69481766,47.6084453 1.57197697,49.4948177 1.57197697,49.4948177" fill="#FFFFFF"></path>
                                            <path d="M1.57197697,49.7193858 C1.52706334,49.7193858 1.48214971,49.7193858 1.43723608,49.6744722 C1.34740883,49.6295585 1.3024952,49.4948177 1.34740883,49.3600768 C1.34740883,49.3600768 2.42533589,47.518618 2.42533589,45.8119002 C2.42533589,44.509405 2.20076775,38.6257198 1.88637236,31.1700576 C1.79654511,28.4303263 1.66180422,25.5109405 1.52706334,22.5017274 C1.07792706,11.4080614 0.179654511,0.628790787 0.179654511,0.494049904 C0.179654511,0.359309021 0.269481766,0.269481766 0.404222649,0.269481766 C0.538963532,0.269481766 0.628790787,0.359309021 0.628790787,0.494049904 C0.628790787,0.583877159 1.52706334,11.4080614 1.97619962,22.5017274 C2.1109405,25.5109405 2.20076775,28.4752399 2.33550864,31.1700576 C2.64990403,38.6257198 2.87447217,44.509405 2.87447217,45.8568138 C2.87447217,47.6982726 1.75163148,49.5846449 1.70671785,49.6295585 C1.70671785,49.6744722 1.66180422,49.7193858 1.57197697,49.7193858 Z" fill="#333333"></path>
                                        </g>
                                        <g transform="translate(20.211132, 0.000000)">
                                            <path d="M2.9193858,0.224568138 C4.35662188,1.43723608 6.3328215,2.6049904 8.75815739,3.36852207 C9.79117083,3.14395393 10.6445298,2.69481766 11.1834933,1.93128599 L11.6775432,4.04222649 C11.8122841,5.16506718 11.0038388,6.37773512 9.88099808,7.6353167 L8.75815739,3.81765835 L7.85988484,7.85988484 C4.94049904,6.51247601 2.38042226,5.0303263 0.449136276,3.14395393 L2.9193858,0.224568138 Z" id="Path" fill="#FFFFFF"></path>
                                            <path d="M7.85988484,8.08445298 C7.81497121,8.08445298 7.81497121,8.08445298 7.77005758,8.08445298 C4.49136276,6.60230326 2.02111324,5.0303263 0.314395393,3.32360845 C0.224568138,3.23378119 0.224568138,3.09904031 0.314395393,3.00921305 L2.78464491,0.0898272553 C2.82955854,0.0449136276 2.87447217,2.84217094e-14 2.9193858,2.84217094e-14 C2.96429942,2.84217094e-14 3.05412668,2.84217094e-14 3.09904031,0.0449136276 C4.62610365,1.34740883 6.60230326,2.42533589 8.80307102,3.14395393 C9.83608445,2.9193858 10.5547025,2.47024952 11.0038388,1.84145873 C11.0487524,1.75163148 11.1385797,1.75163148 11.2284069,1.75163148 C11.3182342,1.75163148 11.3631478,1.84145873 11.4080614,1.93128599 L11.9021113,4.04222649 C12.0368522,5.43454894 11.0038388,6.78195777 10.0606526,7.85988484 C10.015739,7.90479846 9.92591171,7.94971209 9.83608445,7.94971209 C9.7462572,7.94971209 9.70134357,7.85988484 9.65642994,7.81497121 L8.75815739,4.85067179 L8.03953935,8.03953935 C8.03953935,8.08445298 7.99462572,8.17428023 7.90479846,8.17428023 C7.94971209,8.08445298 7.90479846,8.08445298 7.85988484,8.08445298 Z M0.76353167,3.14395393 C2.42533589,4.7159309 4.67101727,6.15316699 7.72514395,7.54548944 L8.57850288,3.77274472 C8.57850288,3.68291747 8.66833013,3.59309021 8.80307102,3.59309021 C8.80307102,3.59309021 8.75815739,3.59309021 8.75815739,3.59309021 C6.55738964,2.87447217 4.58119002,1.84145873 3.00921305,0.538963532 L0.76353167,3.14395393 Z M8.75815739,3.59309021 C8.84798464,3.59309021 8.9378119,3.63800384 8.98272553,3.77274472 L9.97082534,7.18618042 C11.093666,5.88368522 11.5428023,4.94049904 11.452975,4.08714012 L11.0487524,2.47024952 C10.5097889,3.00921305 9.79117083,3.4134357 8.80307102,3.63800384 C8.80307102,3.59309021 8.75815739,3.59309021 8.75815739,3.59309021 Z" id="Shape" fill="#333333" fill-rule="nonzero"></path>
                                        </g>
                                        <path d="M15.4952015,13.4740883 C15.3604607,13.4740883 15.2706334,13.384261 15.2706334,13.2495202 C14.8214971,8.98272553 11.093666,8.08445298 10.9589251,8.03953935 C10.8241843,7.99462572 10.7792706,7.90479846 10.7792706,7.77005758 C10.8241843,7.6353167 10.9140115,7.59040307 11.0487524,7.59040307 C11.093666,7.59040307 15.2706334,8.57850288 15.7197697,13.1596929 C15.7197697,13.3393474 15.6299424,13.4740883 15.4952015,13.4740883 C15.4952015,13.4740883 15.4952015,13.4740883 15.4952015,13.4740883 Z" id="Path" fill="#333333"></path>
                                        <path d="M14.596929,27.3973129 C14.596929,27.3973129 14.5520154,27.3973129 14.596929,27.3973129 C14.4172745,27.3523992 14.3723608,27.262572 14.3723608,27.1278311 L15.2706334,22.1873321 C15.2706334,22.0525912 15.4053743,21.9627639 15.5401152,22.0076775 C15.674856,22.0076775 15.7646833,22.1424184 15.7197697,22.2771593 L14.8214971,27.2176583 C14.7765835,27.3074856 14.6867562,27.3973129 14.596929,27.3973129 Z" id="Path" fill="#333333"></path>
                                        <g transform="translate(39.523992, 18.863724)" id="Path">
                                            <path d="M0.224568138,0.224568138 L1.12284069,20.4357006" fill="#FFFFFF"></path>
                                            <path d="M1.12284069,20.6602687 C0.988099808,20.6602687 0.898272553,20.5704415 0.898272553,20.4357006 L0,0.224568138 C0,0.0898272553 0.0898272553,0 0.224568138,0 C0.359309021,0 0.449136276,0.0898272553 0.449136276,0.224568138 L1.34740883,20.4357006 C1.34740883,20.5704415 1.25758157,20.6602687 1.12284069,20.6602687 C1.12284069,20.6602687 1.12284069,20.6602687 1.12284069,20.6602687 Z" fill="#333333"></path>
                                        </g>
                                        <path d="M39.8833013,22.1424184 C39.8383877,22.1424184 39.7934741,22.1424184 39.7934741,22.0975048 C39.7036468,22.0525912 39.6587332,21.9178503 39.7036468,21.7831094 L40.4671785,20.3009597 C40.5120921,20.2111324 40.646833,20.1662188 40.7815739,20.2111324 C40.8714012,20.2560461 40.9163148,20.3907869 40.8714012,20.5255278 L40.1078695,22.0076775 C40.0180422,22.0975048 39.9731286,22.1424184 39.8833013,22.1424184 Z" id="Path" fill="#333333"></path>
                                        <g transform="translate(32.786948, 18.414587)">
                                            <path d="M5.61420345,2.02111324 C3.81765835,2.64990403 2.02111324,2.82955854 0.224568138,2.47024952 L0.224568138,1.12284069 C2.02111324,1.43723608 3.81765835,1.25758157 5.61420345,0.673704415 L5.61420345,2.02111324 Z" id="Path" fill="#FFFFFF"></path>
                                            <path d="M2.1109405,2.87447217 C1.48214971,2.87447217 0.808445298,2.82955854 0.179654511,2.69481766 C0.0898272553,2.69481766 0,2.56007678 0,2.47024952 L0,1.12284069 C0,1.03301344 0.0449136276,0.988099808 0.0898272553,0.94318618 C0.134740883,0.898272553 0.224568138,0.898272553 0.269481766,0.898272553 C2.02111324,1.16775432 3.77274472,1.03301344 5.5243762,0.449136276 C5.61420345,0.404222649 5.65911708,0.449136276 5.74894434,0.494049904 C5.79385797,0.538963532 5.83877159,0.628790787 5.83877159,0.673704415 L5.83877159,2.02111324 C5.83877159,2.1109405 5.79385797,2.20076775 5.70403071,2.24568138 C4.49136276,2.69481766 3.32360845,2.87447217 2.1109405,2.87447217 Z M0.449136276,2.29059501 C2.06602687,2.56007678 3.72783109,2.42533589 5.38963532,1.88637236 L5.38963532,1.03301344 C3.77274472,1.52706334 2.1109405,1.66180422 0.449136276,1.43723608 L0.449136276,2.29059501 Z" id="Shape" fill="#333333" fill-rule="nonzero"></path>
                                        </g>
                                    </g>
                                    <g id="Group" transform="translate(16.168906, 0.000000)">
                                        <path d="M19.6721689,9.29712092 C21.7381958,14.1927063 23.1305182,24.6126679 17.7857965,26.049904 C14.5520154,26.903263 9.52168906,23.040691 8.08445298,21.2890595 C6.69213052,19.5823417 3.99731286,15.2706334 4.40153551,11.9021113 C5.12015355,5.16506718 16.4833013,1.75163148 19.6721689,9.29712092 Z" id="Path" fill="#8285C4"></path>
                                        <path d="M15.4952015,26.049904 C15.4952015,26.049904 15.4502879,26.049904 15.4502879,26.049904 C14.23762,25.690595 12.665643,25.1965451 11.6775432,24.5228407 C11.5877159,24.4779271 11.5428023,24.2982726 11.5877159,24.2084453 C11.6326296,24.118618 11.8122841,24.0737044 11.9021113,24.118618 C12.8902111,24.7474088 14.4621881,25.2414587 15.5850288,25.6007678 C15.7197697,25.6456814 15.7646833,25.7804223 15.7197697,25.8702495 C15.674856,26.0049904 15.5850288,26.049904 15.4952015,26.049904 Z" id="Path" fill="#333333"></path>
                                        <path d="M8.98272553,20.6602687 C10.7792706,19.3128599 6.87178503,13.0698656 7.18618042,12.1266795 C7.6353167,10.7792706 10.3301344,11.6775432 15.2706334,12.1266795 C23.8042226,12.5758157 26.0948177,6.78195777 23.8042226,4.49136276 C22.0076775,2.69481766 18.4145873,4.49136276 18.4145873,4.49136276 C18.4145873,4.49136276 18.4145873,0.898272553 15.7197697,0.449136276 C13.024952,-5.55111512e-17 11.2284069,3.14395393 11.2284069,3.14395393 C11.2284069,3.14395393 9.56660269,1.3024952 7.18618042,1.79654511 C4.94049904,2.24568138 5.38963532,5.38963532 5.38963532,5.38963532 C5.38963532,5.38963532 1.34740883,5.38963532 0.449136276,8.53358925 C-0.673704415,12.3961612 5.29980806,23.4 8.98272553,20.6602687 Z" id="Path" fill="#333333"></path>
                                        <g transform="translate(4.042226, 17.965451)" id="Path">
                                            <path d="M4.85067179,1.12284069 C4.49136276,0.583877159 2.87447217,-0.404222649 1.3024952,0.179654511 C-1.07792706,1.07792706 1.25758157,5.61420345 4.26679463,4.35662188 C6.0184261,3.63800384 5.20998081,1.66180422 4.85067179,1.12284069 Z" fill="#8285C4"></path>
                                            <path d="M3.9074856,2.06602687 C3.86257198,2.06602687 3.77274472,2.06602687 3.72783109,2.02111324 C3.18886756,1.48214971 2.20076775,1.25758157 1.48214971,1.75163148 C1.39232246,1.84145873 1.25758157,1.79654511 1.16775432,1.70671785 C1.07792706,1.6168906 1.12284069,1.48214971 1.21266795,1.39232246 C2.1109405,0.718618042 3.36852207,1.03301344 4.04222649,1.70671785 C4.13205374,1.79654511 4.13205374,1.93128599 4.04222649,2.02111324 C3.99731286,2.06602687 3.95239923,2.06602687 3.9074856,2.06602687 Z" fill="#333333"></path>
                                        </g>
                                        <g transform="translate(13.474088, 19.312860)">
                                            <path d="M0.449136276,0.449136276 C0.449136276,0.449136276 1.79654511,1.93128599 4.04222649,2.24568138 C5.61420345,2.47024952 6.28790787,2.24568138 6.28790787,2.24568138 C6.28790787,2.24568138 5.43454894,4.221881 3.59309021,4.04222649 C1.12284069,3.81765835 0.449136276,0.449136276 0.449136276,0.449136276 Z" id="Path" fill="#FFFFFF"></path>
                                            <path d="M3.81765835,4.26679463 C3.72783109,4.26679463 3.63800384,4.26679463 3.59309021,4.26679463 C0.988099808,4.04222649 0.269481766,0.628790787 0.269481766,0.494049904 C0.269481766,0.404222649 0.314395393,0.314395393 0.404222649,0.269481766 C0.494049904,0.224568138 0.583877159,0.224568138 0.673704415,0.314395393 C0.673704415,0.314395393 1.97619962,1.75163148 4.13205374,2.02111324 C5.61420345,2.24568138 6.28790787,2.02111324 6.28790787,2.02111324 C6.37773512,1.97619962 6.46756238,2.02111324 6.51247601,2.06602687 C6.55738964,2.1109405 6.60230326,2.24568138 6.55738964,2.29059501 C6.46756238,2.33550864 5.61420345,4.26679463 3.81765835,4.26679463 Z M0.898272553,1.12284069 C1.25758157,2.06602687 2.06602687,3.63800384 3.63800384,3.81765835 C4.80575816,3.9074856 5.56928983,3.05412668 5.88368522,2.56007678 C5.5243762,2.6049904 4.89558541,2.6049904 4.04222649,2.47024952 C2.56007678,2.24568138 1.48214971,1.6168906 0.898272553,1.12284069 Z" id="Shape" fill="#333333" fill-rule="nonzero"></path>
                                        </g>
                                        <ellipse id="Oval" fill="#333333" transform="translate(15.040096, 16.212845) rotate(-16.504972) translate(-15.040096, -16.212845) " cx="15.0400962" cy="16.212845" rx="1" ry="1"></ellipse>
                                        <ellipse id="Oval" fill="#333333" transform="translate(19.895262, 15.586682) rotate(-4.994135) translate(-19.895262, -15.586682) " cx="19.8952617" cy="15.5866817" rx="1" ry="1"></ellipse>
                                        <path d="M12.3512476,15.2706334 C12.306334,15.2706334 12.2614203,15.2706334 12.2614203,15.2257198 C12.1715931,15.1808061 12.1266795,15.0460653 12.1715931,14.9113244 C12.8452975,13.6088292 13.9232246,13.0698656 15.1358925,13.4291747 C15.2706334,13.4740883 15.315547,13.6088292 15.2706334,13.6986564 C15.2257198,13.8333973 15.0909789,13.8783109 15.0011516,13.8333973 C13.6088292,13.384261 12.8452975,14.5520154 12.5758157,15.0460653 C12.5309021,15.2257198 12.4410749,15.2706334 12.3512476,15.2706334 Z" id="Path" fill="#333333"></path>
                                        <path d="M17.7408829,20.2111324 C17.606142,20.2111324 17.5163148,20.1213052 17.5163148,19.9865643 C17.5163148,19.8518234 17.606142,19.7619962 17.7408829,19.7619962 C17.7408829,19.7619962 18.5493282,19.7619962 18.9086372,19.3577735 C19.2230326,19.0433781 18.7738964,16.3485605 17.7408829,14.9113244 C17.6510557,14.8214971 17.6959693,14.6867562 17.7857965,14.596929 C17.8756238,14.5071017 18.0103647,14.5520154 18.1001919,14.6418426 C19.0433781,15.9892514 19.8069098,19.0433781 19.178119,19.6272553 C18.7289827,20.2111324 17.7857965,20.2111324 17.7408829,20.2111324 Z" id="Path" fill="#333333"></path>
                                        <path d="M20.5704415,14.1028791 C20.4806142,14.1028791 20.3907869,14.0579655 20.3907869,13.9681382 C19.9865643,13.2046065 19.5823417,13.0698656 18.7738964,13.4740883 C18.6840691,13.5190019 18.5493282,13.4740883 18.459501,13.384261 C18.4145873,13.2944338 18.459501,13.1596929 18.5493282,13.0698656 C19.537428,12.5758157 20.2560461,12.8003839 20.750096,13.7884837 C20.7950096,13.8783109 20.750096,14.0130518 20.6602687,14.1028791 C20.6153551,14.0579655 20.6153551,14.1028791 20.5704415,14.1028791 Z" id="Path" fill="#333333"></path>
                                    </g>
                                </g>
                                <g id="Woman_x5F_2" transform="translate(266.786948, 102.403071)">
                                    <g id="Group" transform="translate(0.000000, 4.042226)">
                                        <path d="M33.9097889,9.61151631 C28.8345489,-3.05412668 12.306334,-3.00921305 6.24299424,11.8571977 C4.49136276,16.168906 0.673704415,17.5612284 0.269481766,18.7738964 C-0.134740883,19.9865643 2.87447217,20.7051823 2.78464491,20.9746641 C0.898272553,28.6998081 1.34740883,32.1132438 4.49136276,32.7420345 C6.73704415,33.1911708 11.6326296,31.8886756 13.4740883,34.5385797 C15.8095969,37.9071017 14.23762,49.3151631 17.1120921,50.5727447 C18.81881,51.2913628 31.6641075,41.7696737 32.0683301,40.1078695 C32.4725528,38.4460653 25.9151631,29.0591171 28.1608445,27.1727447 C34.3140115,22.2322457 35.5715931,13.6986564 33.9097889,9.61151631 Z" id="Path" fill="#8285C4"></path>
                                        <path d="M12.1266795,15.2706334 C12.0368522,15.2706334 11.947025,15.1808061 11.9021113,15.0909789 C11.6775432,13.6537428 10.8690979,11.9021113 8.35393474,11.9021113 C8.21919386,11.9021113 8.1293666,11.8122841 8.1293666,11.6775432 C8.1293666,11.5428023 8.21919386,11.452975 8.35393474,11.452975 C11.3182342,11.452975 12.0817658,13.6537428 12.306334,14.956238 C12.3512476,15.1358925 12.2614203,15.2257198 12.1266795,15.2706334 C12.1715931,15.2706334 12.1266795,15.2706334 12.1266795,15.2706334 Z" id="Path" fill="#333333"></path>
                                        <path d="M9.79117083,14.4172745 C8.98272553,13.9232246 8.08445298,14.3723608 7.6353167,13.4740883 C7.77005758,14.0579655 7.99462572,14.5520154 8.35393474,14.8664107 C8.1293666,15.0909789 7.90479846,15.4053743 7.77005758,15.7646833 C7.27600768,16.7976967 7.41074856,17.8756238 8.03953935,18.1900192 C8.66833013,18.459501 9.56660269,17.8756238 10.0606526,16.7976967 C10.4648752,15.8095969 10.375048,14.7316699 9.79117083,14.4172745 Z" id="Path" fill="#333333"></path>
                                        <g transform="translate(1.347409, 23.355086)" id="Path">
                                            <path d="M0.314395393,4.221881 C0.359309021,3.4134357 0.449136276,2.47024952 0.628790787,1.43723608 C0.628790787,1.43723608 2.69481766,1.79654511 4.94049904,0.449136276 C4.94049904,1.79654511 3.14395393,4.49136276 0.314395393,4.221881 Z" fill="#FFFFFF"></path>
                                            <path d="M0.673704415,4.44644914 C0.538963532,4.44644914 0.404222649,4.44644914 0.269481766,4.44644914 C0.179654511,4.44644914 0.0898272553,4.35662188 0.0898272553,4.221881 C0.0898272553,4.13205374 0.179654511,4.04222649 0.314395393,4.04222649 C1.70671785,4.17696737 2.73973129,3.54817658 3.36852207,2.96429942 C4.13205374,2.29059501 4.58119002,1.43723608 4.7159309,0.808445298 C2.56007678,1.97619962 0.673704415,1.66180422 0.583877159,1.66180422 C0.494049904,1.66180422 0.404222649,1.52706334 0.449136276,1.43723608 C0.449136276,1.34740883 0.583877159,1.25758157 0.673704415,1.3024952 C0.673704415,1.3024952 2.69481766,1.6168906 4.85067179,0.314395393 C4.89558541,0.269481766 4.98541267,0.269481766 5.0303263,0.314395393 C5.07523992,0.359309021 5.12015355,0.404222649 5.12015355,0.494049904 C5.12015355,1.34740883 4.49136276,2.51516315 3.63800384,3.27869482 C3.00921305,3.81765835 2.02111324,4.44644914 0.673704415,4.44644914 Z" fill="#333333"></path>
                                            <path d="M5.61420345,1.3024952 C5.5243762,1.3024952 5.47946257,1.25758157 5.43454894,1.21266795 C5.20998081,0.718618042 4.94049904,0.449136276 4.67101727,0.404222649 C4.58119002,0.404222649 4.49136276,0.314395393 4.49136276,0.179654511 C4.49136276,0.0898272553 4.62610365,0 4.7159309,0 C5.25489443,0.0449136276 5.56928983,0.583877159 5.74894434,0.988099808 C5.79385797,1.07792706 5.74894434,1.21266795 5.65911708,1.25758157 C5.65911708,1.3024952 5.65911708,1.3024952 5.61420345,1.3024952 Z" fill="#333333"></path>
                                        </g>
                                    </g>
                                    <g id="Group" transform="translate(4.042226, 46.261036)">
                                        <path d="M2.24568138,3.14395393 C6.28790787,-0.898272553 20.6602687,3.14395393 27.3973129,2.24568138 C34.134357,1.34740883 39.9731286,-1.34740883 44.4644914,0.898272553 C48.9558541,3.14395393 55.6928983,63.328215 45.8119002,62.8790787 C35.9309021,62.4299424 4.04222649,35.0326296 4.04222649,35.0326296 C4.04222649,35.0326296 -3.05412668,8.443762 2.24568138,3.14395393 Z" id="Path" fill="#6D359E"></path>
                                        <path d="M18.8637236,44.6890595 C18.7738964,44.6890595 18.6391555,44.5992322 18.6391555,44.509405 C18.1900192,41.4103647 15.9443378,25.9600768 16.3934741,25.0618042 C16.4383877,24.971977 16.5731286,24.9270633 16.7078695,24.971977 C16.7976967,25.0168906 16.8426104,25.1516315 16.7976967,25.2863724 C16.528215,26.049904 18.0103647,37.1884837 19.0433781,44.4644914 C19.0882917,44.5543186 18.9984645,44.6890595 18.8637236,44.6890595 C18.8637236,44.6890595 18.8637236,44.6890595 18.8637236,44.6890595 Z" id="Path" fill="#333333"></path>
                                    </g>
                                    <g id="Group" transform="translate(26.499040, 42.218810)">
                                        <path d="M50.4380038,24.5677543 C48.731286,15.4952015 46.6652591,6.73704415 44.8238004,4.04222649 C40.5570058,-2.24568138 20.5255278,0.898272553 20.5255278,0.898272553 C0.538963532,3.59309021 0.0449136276,14.3723608 0.538963532,23.3550864 C1.03301344,32.3378119 4.04222649,58.6571977 4.04222649,58.6571977 L25.1067179,70.918618 C37.6825336,60.4986564 46.8,44.6890595 50.4380038,24.5677543 Z" id="Path" fill="#333333"></path>
                                        <path d="M9.92591171,59.1961612 C9.79117083,59.1961612 9.70134357,59.106334 9.70134357,59.0165067 C8.89289827,51.6057582 6.91669866,33.6852207 6.51247601,26.5439539 C6.10825336,19.1332054 5.47946257,6.73704415 26.7236084,3.86257198 C26.8583493,3.86257198 26.9481766,3.95239923 26.9930902,4.04222649 C26.9930902,4.17696737 26.903263,4.26679463 26.8134357,4.31170825 C7.59040307,6.91669866 6.51247601,16.7078695 7.00652591,26.5439539 C7.36583493,33.6852207 9.34203455,51.6057582 10.1953935,59.0165067 C10.1504798,59.0614203 10.0606526,59.1961612 9.92591171,59.1961612 C9.92591171,59.1961612 9.92591171,59.1961612 9.92591171,59.1961612 Z" id="Path" fill="#FFFFFF"></path>
                                    </g>
                                    <path d="M5.97351248,16.3934741 C5.97351248,16.3934741 4.04222649,14.3723608 5.83877159,9.4318618 C7.6353167,4.49136276 16.6180422,-0.898272553 25.6007678,0.449136276 C34.5834933,1.79654511 33.2360845,8.53358925 35.4817658,12.1266795 C37.7274472,15.7197697 44.9136276,13.9232246 48.0575816,18.8637236 C51.2015355,23.8042226 47.6084453,28.2955854 50.303263,32.7869482 C52.9980806,37.2783109 59.1512476,38.5358925 57.9385797,47.159309 C56.1420345,59.7351248 23.3550864,64.2264875 18.4145873,47.159309 C14.0579655,32.0683301 25.6007678,33.2360845 23.8042226,26.4990403 C22.0076775,19.7619962 18.8637236,21.109405 13.9232246,18.4145873 C9.7462572,16.1239923 10.3301344,10.3301344 10.3301344,10.3301344 C8.62341651,11.5877159 7.27600768,13.8783109 5.97351248,16.3934741 Z" id="Path" fill="#ED4A25"></path>
                                    <g id="Group" transform="translate(18.863724, 22.905950)">
                                        <path d="M0.94318618,2.20076775 C1.57197697,1.3024952 4.13205374,-0.269481766 6.64721689,0.718618042 C10.4199616,2.15585413 6.73704415,9.4318618 1.88637236,7.41074856 C-0.94318618,6.24299424 0.359309021,3.09904031 0.94318618,2.20076775 Z" id="Path" fill="#8285C4"></path>
                                        <path d="M2.47024952,3.54817658 C2.42533589,3.54817658 2.38042226,3.54817658 2.33550864,3.50326296 C2.24568138,3.4134357 2.24568138,3.32360845 2.33550864,3.23378119 C3.36852207,2.20076775 5.20998081,1.75163148 6.60230326,2.78464491 C6.69213052,2.82955854 6.69213052,2.96429942 6.64721689,3.05412668 C6.60230326,3.14395393 6.46756238,3.14395393 6.37773512,3.09904031 C5.16506718,2.20076775 3.45834933,2.6049904 2.56007678,3.54817658 C2.56007678,3.54817658 2.51516315,3.54817658 2.47024952,3.54817658 Z" id="Path" fill="#333333"></path>
                                    </g>
                                </g>
                                <g id="Man_x5F_1" transform="translate(31.439539, 94.767754)">
                                    <g id="Group" transform="translate(32.786948, 4.491363)">
                                        <path d="M6.3328215,6.19808061 C14.23762,-4.17696737 29.1489443,-0.404222649 30.9904031,14.8214971 C31.5293666,19.2230326 34.9877159,21.6483685 35.0326296,22.9059501 C35.0775432,24.1635317 32.1581574,24.2982726 32.1581574,24.6126679 C31.9335893,32.203071 30.6760077,35.2571977 27.5769674,35.0326296 C25.3761996,34.8978887 22.5915547,33.0564299 20.2111324,35.0326296 C17.2019194,37.5477927 19.5823417,44.509405 16.6180422,44.9136276 C14.8664107,45.1381958 -0.0449136276,42.937428 -6.77626358e-20,41.3205374 C0.0449136276,39.7036468 6.28790787,28.2955854 4.49136276,24.7024952 C1.12284069,17.9205374 3.77274472,9.52168906 6.3328215,6.19808061 Z" id="Path" fill="#8285C4"></path>
                                        <path d="M31.7090211,29.8226488 C31.8886756,28.6548944 32.0234165,27.262572 32.1132438,25.6456814 C32.1132438,25.6456814 29.1040307,25.5558541 28.7447217,26.049904 C27.3973129,27.8464491 31.7090211,29.8226488 31.7090211,29.8226488 Z" id="Path" fill="#FFFFFF"></path>
                                        <path d="M25.0618042,16.0341651 C25.0168906,16.0341651 25.0168906,16.0341651 24.971977,16.0341651 C24.8821497,15.9892514 24.8372361,15.8545106 24.8821497,15.7646833 C25.4660269,14.5520154 26.7236084,13.2495202 29.4184261,13.9681382 C29.5082534,14.0130518 29.5980806,14.1028791 29.553167,14.1927063 C29.5082534,14.2825336 29.4184261,14.3723608 29.3285988,14.3274472 C27.3523992,13.7884837 25.9600768,14.3274472 25.2414587,15.8994242 C25.1965451,15.9892514 25.1067179,16.0341651 25.0618042,16.0341651 Z" id="Path" fill="#333333"></path>
                                    </g>
                                    <path d="M58.3877159,46.7101727 C51.2015355,39.5239923 40.8714012,39.9731286 32.7869482,39.9731286 C26.0049904,39.9731286 17.9654511,44.0153551 15.2706334,49.8541267 C13.1596929,54.4353167 9.34203455,113.182342 19.2230326,112.733205 C29.1040307,112.284069 60.9927063,84.8867562 60.9927063,84.8867562 C60.9927063,84.8867562 63.687524,52.0099808 58.3877159,46.7101727 Z" id="Path" fill="#ED4A25"></path>
                                    <g id="Group" transform="translate(0.000000, 50.752399)">
                                        <path d="M0.404222649,27.3523992 C0.94318618,18.1451056 1.88637236,9.16238004 3.36852207,6.28790787 C6.8268714,-0.494049904 27.0380038,0.0898272553 27.0380038,0.0898272553 C47.2042226,0.224568138 49.0456814,10.8690979 49.7193858,19.8069098 C50.3930902,28.7896353 50.7523992,55.2886756 50.7523992,55.2886756 L31.3946257,70.1101727 C17.606142,61.396929 6.51247601,46.8449136 0.404222649,27.3523992 Z" id="Path" fill="#333333"></path>
                                        <path d="M44.9136276,56.5911708 C44.7788868,56.5911708 44.6890595,56.5013436 44.6890595,56.3666027 C44.5543186,48.9558541 44.2399232,30.9005758 43.7009597,23.759309 C42.9823417,13.9681382 40.646833,4.35662188 21.2441459,4.221881 C21.109405,4.221881 21.0195777,4.13205374 21.0195777,3.99731286 C21.0195777,3.86257198 21.109405,3.77274472 21.2441459,3.77274472 C21.2441459,3.77274472 21.2441459,3.77274472 21.2441459,3.77274472 C42.6679463,3.9074856 43.6111324,16.3036468 44.150096,23.7143954 C44.6890595,30.8556622 45.0034549,48.9109405 45.1381958,56.3216891 C45.1381958,56.5013436 45.0483685,56.5911708 44.9136276,56.5911708 C44.9136276,56.5911708 44.9136276,56.5911708 44.9136276,56.5911708 Z" id="Path" fill="#FFFFFF"></path>
                                    </g>
                                    <path d="M50.303263,20.2111324 C53.4472169,20.2111324 56.5911708,17.5163148 56.1420345,14.8214971 C56.1420345,14.8214971 65.1247601,16.6180422 65.1247601,10.7792706 C65.1247601,6.28790787 59.465643,-0.134740883 50.7523992,0.449136276 C37.2783109,1.34740883 37.2783109,13.024952 37.2783109,13.024952 C37.2783109,13.024952 30.5412668,13.4740883 29.6429942,22.9059501 C28.7447217,32.3378119 37.2783109,38.1765835 44.0153551,37.2783109 C52.5489443,36.3800384 50.303263,20.2111324 50.303263,20.2111324 Z" id="Path" fill="#333333"></path>
                                    <g id="Group" transform="translate(44.015355, 22.905950)">
                                        <path d="M6.69213052,1.93128599 C6.10825336,1.07792706 4.08714012,-0.404222649 1.70671785,0.494049904 C-1.93128599,1.88637236 1.6168906,8.80307102 6.24299424,6.87178503 C8.9378119,5.74894434 7.27600768,2.78464491 6.69213052,1.93128599 Z" id="Path" fill="#8285C4"></path>
                                        <path d="M5.25489443,3.23378119 C5.20998081,3.23378119 5.16506718,3.23378119 5.12015355,3.18886756 C4.53627639,2.6049904 3.36852207,1.79654511 1.93128599,2.78464491 C1.84145873,2.82955854 1.75163148,2.82955854 1.66180422,2.73973129 C1.6168906,2.64990403 1.6168906,2.56007678 1.70671785,2.47024952 C2.87447217,1.6168906 4.221881,1.79654511 5.34472169,2.9193858 C5.43454894,3.00921305 5.43454894,3.09904031 5.34472169,3.18886756 C5.34472169,3.18886756 5.29980806,3.23378119 5.25489443,3.23378119 Z" id="Path" fill="#333333"></path>
                                    </g>
                                    <ellipse id="Oval" fill="#333333" transform="translate(60.867285, 22.908375) rotate(-6.660969) translate(-60.867285, -22.908375) " cx="60.867285" cy="22.9083754" rx="1.12289733" ry="1.79663573"></ellipse>
                                    <path d="M50.7523992,19.3128599 C50.7523992,19.3128599 49.8541267,27.8464491 53.8963532,29.6429942 C57.9385797,31.4395393 64.6756238,28.7447217 65.1247601,29.193858 C65.5738964,29.6429942 65.5289827,30.8107486 65.1247601,30.9904031 C64.2264875,31.4395393 61.9808061,31.4395393 61.9808061,31.4395393 C61.9808061,31.8886756 62.2952015,33.5953935 64.6756238,33.6852207 C65.1247601,36.784261 67.3704415,39.5239923 64.6756238,41.3205374 C61.1274472,43.7009597 53.4472169,40.8714012 51.6506718,38.1765835 C49.3600768,34.7182342 49.8541267,19.7619962 49.8541267,19.7619962 L50.7523992,19.3128599 Z" id="Path" fill="#333333"></path>
                                </g>
                                <g id="Man_x5F_2" transform="translate(304.514395, 116.775432)">
                                    <path d="M39.9731286,47.159309 C39.6587332,47.159309 39.3892514,47.159309 39.074856,47.159309 C29.6429942,47.6084453 13.024952,51.6506718 10.3301344,57.9385797 C7.6353167,64.2264875 0,93.8694818 0,93.8694818 L10.4199616,101.459885 C25.8702495,90.3213052 36.9190019,71.6372361 39.9731286,47.159309 Z" id="Path" fill="#FFFFFF"></path>
                                    <g id="Group" transform="translate(3.593090, 0.000000)">
                                        <path d="M34.5834933,13.4740883 C29.0142035,-0.404222649 15.4952015,-0.673704415 8.08445298,15.2706334 C6.8268714,17.9654511 0.898272553,21.109405 0.449136276,22.4568138 C5.55111512e-17,23.8042226 2.78464491,25.7355086 2.69481766,26.049904 C0.449136276,33.2360845 1.21266795,36.065643 2.69481766,37.7274472 C6.51247601,41.9942418 13.024952,38.1765835 15.0460653,41.0959693 C17.606142,44.7788868 15.2706334,57.9385797 18.4145873,59.2859885 C20.2560461,60.0944338 34.3589251,49.6295585 34.8080614,47.8330134 C35.2571977,46.0364683 28.0710173,35.706334 30.5412668,33.6852207 C37.2333973,28.2057582 36.3800384,17.9654511 34.5834933,13.4740883 Z" id="Path" fill="#8285C4"></path>
                                        <path d="M33.3259117,0.76353167 C32.7420345,0.628790787 32.1132438,0.538963532 31.4395393,0.449136276 C21.5585413,-0.359309021 13.4740883,2.69481766 13.4740883,5.83877159 C13.4740883,13.384261 27.3973129,9.4318618 29.6429942,12.5758157 C31.8886756,15.7197697 22.0076775,20.6602687 22.4568138,25.6007678 C23.040691,32.1132438 25.2414587,38.4909789 30.5412668,39.074856 C32.7869482,39.2994242 35.1673704,37.8172745 37.2333973,35.5266795 C37.2333973,34.6284069 37.2783109,33.7301344 37.2783109,32.7869482 C37.2783109,23.4898273 36.1105566,12.4859885 33.3259117,0.76353167 Z" id="Path" fill="#333333"></path>
                                        <path d="M22.0975048,26.1846449 C22.9957774,25.2863724 26.3642994,24.0737044 29.0591171,25.7804223 C33.1462572,28.340499 26.3193858,35.3919386 21.9627639,32.4725528 C18.9984645,30.4065259 21.1992322,27.0380038 22.0975048,26.1846449 Z" id="Path" fill="#8285C4"></path>
                                        <path d="M28.0261036,28.5650672 C27.98119,28.5650672 27.8913628,28.5201536 27.8464491,28.4752399 C26.5888676,27.1727447 24.0287908,27.0380038 22.7712092,27.8913628 C22.681382,27.98119 22.5466411,27.9362764 22.4568138,27.8464491 C22.3669866,27.7566219 22.4119002,27.621881 22.5017274,27.5320537 C23.8940499,26.5888676 26.7685221,26.6786948 28.1608445,28.1608445 C28.2506718,28.2506718 28.2506718,28.3854127 28.1608445,28.4752399 C28.1608445,28.5650672 28.0710173,28.5650672 28.0261036,28.5650672 Z" id="Path" fill="#333333"></path>
                                        <ellipse id="Oval" fill="#333333" transform="translate(12.327915, 18.647487) rotate(-65.252073) translate(-12.327915, -18.647487) " cx="12.327915" cy="18.6474869" rx="2.24553717" ry="1.3473223"></ellipse>
                                        <path d="M16.8426104,17.0671785 C16.7527831,17.0671785 16.6629559,16.9773512 16.6180422,16.887524 C16.2138196,15.315547 14.596929,13.9232246 12.3961612,14.3723608 C12.2614203,14.4172745 12.1715931,14.3274472 12.1266795,14.1927063 C12.0817658,14.0579655 12.1715931,13.9681382 12.306334,13.9232246 C14.8214971,13.4291747 16.6180422,15.0460653 17.0671785,16.7976967 C17.1120921,16.9324376 17.0222649,17.0222649 16.887524,17.0671785 C16.887524,17.0671785 16.8426104,17.0671785 16.8426104,17.0671785 Z" id="Path" fill="#333333"></path>
                                        <path d="M3.81765835,31.2598848 C2.96429942,31.2598848 2.15585413,31.1700576 1.52706334,30.9904031 C1.39232246,30.9454894 1.34740883,30.8556622 1.34740883,30.7209213 C1.39232246,30.5861804 1.48214971,30.5412668 1.6168906,30.5412668 C3.50326296,31.0353167 6.91669866,30.9454894 8.57850288,29.2387716 C8.66833013,29.1489443 8.80307102,29.1489443 8.89289827,29.2387716 C8.98272553,29.3285988 8.98272553,29.4633397 8.89289827,29.553167 C7.68023033,30.8107486 5.61420345,31.2598848 3.81765835,31.2598848 Z" id="Path" fill="#333333"></path>
                                        <path d="M9.20729367,30.5412668 C9.07255278,30.5412668 8.98272553,30.4514395 8.98272553,30.3166987 C8.98272553,29.193858 7.90479846,29.193858 7.85988484,29.193858 C7.72514395,29.193858 7.6353167,29.1040307 7.6353167,28.9692898 C7.6353167,28.8345489 7.72514395,28.7447217 7.85988484,28.7447217 C8.39884837,28.7447217 9.4318618,29.0591171 9.4318618,30.3166987 C9.4318618,30.4514395 9.34203455,30.5412668 9.20729367,30.5412668 Z" id="Path" fill="#333333"></path>
                                    </g>
                                    <g id="Group" transform="translate(22.007678, 41.769674)">
                                        <path d="M0.224568138,15.9443378 L1.12284069,25.3761996 C1.12284069,25.3761996 4.40153551,23.3550864 10.7792706,16.168906 C17.9654511,8.08445298 17.7408829,5.16506718 17.7408829,5.16506718 C17.7408829,5.16506718 16.528215,-1.12284069 14.3274472,0.76353167 C12.1266795,2.64990403 5.0303263,12.7105566 0.224568138,15.9443378 Z" id="Path" fill="#FFFFFF"></path>
                                        <path d="M1.12284069,25.6007678 C1.07792706,25.6007678 1.03301344,25.6007678 1.03301344,25.5558541 C0.94318618,25.5109405 0.898272553,25.4660269 0.898272553,25.3761996 L0,15.9443378 C0,15.8545106 0.0449136276,15.7646833 0.0898272553,15.7197697 C3.18886756,13.6088292 7.36583493,8.57850288 10.375048,4.89558541 C12.0817658,2.82955854 13.384261,1.21266795 14.1477927,0.538963532 C14.596929,0.134740883 15.0460653,0.0449136276 15.4952015,0.179654511 C17.0671785,0.718618042 17.8756238,4.62610365 17.9654511,5.0303263 C17.9654511,5.16506718 18.1001919,8.17428023 10.9589251,16.2138196 C4.62610365,23.3550864 1.39232246,25.3761996 1.25758157,25.4660269 C1.21266795,25.6007678 1.16775432,25.6007678 1.12284069,25.6007678 Z M0.449136276,16.0341651 L1.3024952,24.971977 C2.24568138,24.2982726 5.38963532,21.8729367 10.5996161,16.0341651 C17.5612284,8.17428023 17.5163148,5.20998081 17.5163148,5.20998081 C17.2917466,4.08714012 16.4833013,1.07792706 15.3604607,0.718618042 C15.0909789,0.628790787 14.7765835,0.718618042 14.4621881,0.988099808 C13.6986564,1.66180422 12.306334,3.32360845 10.734357,5.29980806 C7.72514395,8.89289827 3.63800384,13.8783109 0.449136276,16.0341651 Z" id="Shape" fill="#333333" fill-rule="nonzero"></path>
                                    </g>
                                    <g id="Group" transform="translate(17.965451, 48.506718)">
                                        <path d="M2.02111324,0.224568138 C1.97619962,3.50326296 2.56007678,6.73704415 4.26679463,9.20729367 L2.47024952,18.6391555 C0.76353167,13.6537428 -0.0449136276,8.48867562 0.898272553,3.05412668 L2.02111324,0.224568138 Z" id="Path" fill="#FFFFFF"></path>
                                        <path d="M2.47024952,18.8637236 C2.38042226,18.8637236 2.29059501,18.81881 2.24568138,18.7289827 C0.314395393,12.9800384 -0.224568138,7.99462572 0.673704415,3.05412668 C0.673704415,3.05412668 0.673704415,3.00921305 0.673704415,3.00921305 L1.79654511,0.179654511 C1.84145873,0.0898272553 1.93128599,-1.45716772e-16 2.06602687,0.0449136276 C2.15585413,0.0449136276 2.24568138,0.179654511 2.24568138,0.269481766 C2.20076775,3.95239923 2.9193858,6.91669866 4.44644914,9.11746641 C4.49136276,9.16238004 4.49136276,9.20729367 4.49136276,9.29712092 L2.69481766,18.7289827 C2.64990403,18.7738964 2.6049904,18.8637236 2.47024952,18.8637236 C2.47024952,18.8637236 2.47024952,18.8637236 2.47024952,18.8637236 Z M1.12284069,3.14395393 C0.314395393,7.77005758 0.718618042,12.4410749 2.42533589,17.7408829 L4.04222649,9.25220729 C2.64990403,7.23109405 1.93128599,4.58119002 1.84145873,1.39232246 L1.12284069,3.14395393 Z" id="Shape" fill="#333333" fill-rule="nonzero"></path>
                                    </g>
                                    <path d="M19.3128599,93.959309 C19.3128599,93.959309 19.2679463,93.959309 19.3128599,93.959309 C19.178119,93.959309 19.0882917,93.8245681 19.0882917,93.7347409 C19.9416507,81.293666 20.9297505,69.3017274 22.0076775,58.1631478 C22.0076775,58.0284069 22.1424184,57.9385797 22.2322457,57.9385797 C22.3669866,57.9385797 22.4568138,58.0733205 22.4568138,58.1631478 C21.3788868,69.3017274 20.3907869,81.2487524 19.537428,93.7347409 C19.4925144,93.8694818 19.4026871,93.959309 19.3128599,93.959309 Z" id="Path" fill="#333333"></path>
                                </g>
                                <g id="Woman_x5F_1" transform="translate(0.000000, 101.504798)">
                                    <g id="Group" transform="translate(15.270633, 11.228407)">
                                        <path d="M4.94049904,8.89289827 C12.1715931,-4.17696737 24.971977,-2.56007678 30.9904031,13.9681382 C32.7869482,18.8637236 37.0088292,20.1662188 37.2783109,21.5585413 C37.5477927,22.9508637 34.9428023,24.971977 34.9877159,25.331286 C35.9309021,31.8886756 35.2122841,35.4368522 33.5504798,36.9190019 C29.2387716,40.6917466 23.2652591,36.065643 20.8848369,38.715547 C17.8756238,42.0840691 18.5493282,55.3785029 15.2706334,56.3666027 C13.3393474,56.9055662 0.628790787,44.8238004 0.404222649,42.9823417 C0.179654511,41.1408829 8.57850288,31.7988484 6.37773512,29.4633397 C0.449136276,23.1305182 2.56007678,13.1147793 4.94049904,8.89289827 Z" id="Path" fill="#A894D3"></path>
                                        <path d="M25.0618042,17.1570058 C25.4211132,18.3247601 26.3193858,19.1332054 27.0380038,18.9086372 C27.7566219,18.6840691 28.0261036,17.5612284 27.621881,16.3485605 C27.4871401,15.8994242 27.262572,15.5401152 27.0380038,15.2257198 C27.3523992,14.956238 27.4422265,14.4621881 27.3973129,13.9232246 C27.3973129,13.9232246 25.9151631,14.5520154 25.6456814,14.6418426 C24.9270633,14.8664107 24.6575816,15.9892514 25.0618042,17.1570058 Z" id="Path" fill="#333333"></path>
                                        <path d="M22.0975048,14.6418426 C22.0525912,14.6418426 22.0525912,14.6418426 22.0076775,14.6418426 C21.8729367,14.596929 21.828023,14.4621881 21.8729367,14.3723608 C22.5915547,12.4410749 24.7024952,10.9140115 26.9481766,11.6775432 C27.0829175,11.7224568 27.1278311,11.8571977 27.0829175,11.947025 C27.0380038,12.0817658 26.903263,12.1266795 26.8134357,12.0817658 C24.8372361,11.4080614 22.9508637,12.8003839 22.3220729,14.5071017 C22.2771593,14.596929 22.1873321,14.6418426 22.0975048,14.6418426 Z" id="Path" fill="#333333"></path>
                                        <g transform="translate(28.295585, 27.397313)" id="Path">
                                            <path d="M7.18618042,2.69481766 C7.18618042,2.69481766 1.84145873,2.51516315 0.269481766,0.494049904 C2.78464491,1.07792706 7.00652591,0.404222649 7.05143954,0.269481766 L7.18618042,2.69481766 Z" fill="#FFFFFF"></path>
                                            <path d="M6.28790787,3.00921305 C4.221881,3.00921305 1.43723608,2.33550864 0.0898272553,0.628790787 C0.0449136276,0.538963532 0.0449136276,0.449136276 0.0898272553,0.359309021 C0.134740883,0.269481766 0.224568138,0.224568138 0.314395393,0.269481766 C3.23378119,0.76353167 5.34472169,0.718618042 7.00652591,0.0449136276 C7.14126679,-2.55316601e-14 7.23109405,0.0449136276 7.32092131,0.179654511 C7.36583493,0.314395393 7.32092131,0.404222649 7.18618042,0.494049904 C5.56928983,1.12284069 3.59309021,1.25758157 0.898272553,0.853358925 C2.51516315,2.33550864 5.47946257,2.73973129 7.23109405,2.51516315 C7.36583493,2.51516315 7.45566219,2.6049904 7.50057582,2.69481766 C7.50057582,2.82955854 7.41074856,2.9193858 7.32092131,2.96429942 C6.96161228,3.00921305 6.64721689,3.00921305 6.28790787,3.00921305 Z" fill="#333333"></path>
                                        </g>
                                    </g>
                                    <path d="M34.134357,63.328215 C34.134357,63.328215 48.0575816,59.2859885 55.243762,63.328215 C63.1036468,67.7746641 68.7178503,103.301344 68.7178503,103.301344 C68.7178503,103.301344 48.1923225,113.272169 39.074856,107.34357 C27.3973129,99.7082534 34.134357,63.328215 34.134357,63.328215 Z" id="Path" fill="#5E35B1"></path>
                                    <path d="M46.7101727,69.6161228 C42.21881,61.5316699 35.4817658,54.7946257 33.6852207,46.2610365 C31.8886756,37.7274472 34.5834933,22.4568138 34.5834933,22.4568138 C34.5834933,22.4568138 41.7696737,21.2441459 45.3627639,16.6180422 C48.2821497,12.8902111 48.4168906,4.89558541 44.4644914,2.24568138 C36.3800384,-3.14395393 28.2955854,4.94049904 28.2955854,4.94049904 C28.2955854,4.94049904 21.2890595,1.25758157 13.024952,5.38963532 C4.94049904,9.4318618 2.78464491,18.3696737 0.134740883,24.2982726 C-0.628790787,45.5873321 4.08714012,70.1550864 17.3815739,89.6026871 C17.8756238,89.8272553 18.3696737,90.0518234 18.8637236,90.2763916 C42.6679463,100.15739 51.2015355,77.7005758 46.7101727,69.6161228 Z" id="Path" fill="#FF9E80"></path>
                                    <g id="Group" transform="translate(4.940499, 62.879079)">
                                        <path d="M28.5201536,5.16506718 C22.1873321,0.538963532 8.84798464,0.0449136276 0.134740883,0.583877159 C6.8268714,22.7262956 20.7950096,43.2518234 45.1381958,53.8065259 C44.0153551,42.6230326 41.7696737,14.8214971 28.5201536,5.16506718 Z" id="Path" fill="#333333"></path>
                                        <path d="M37.1884837,47.8330134 C37.0986564,47.8330134 36.9639155,47.7431862 36.9639155,47.6533589 C36.8291747,46.7550864 36.6944338,45.7669866 36.5596929,44.7788868 C34.7631478,31.3946257 31.9785029,11.1834933 21.2441459,5.83877159 C21.109405,5.79385797 21.0644914,5.65911708 21.1543186,5.5243762 C21.1992322,5.38963532 21.3339731,5.34472169 21.468714,5.43454894 C32.4276392,10.9140115 35.2122841,31.2598848 37.0537428,44.7339731 C37.1884837,45.7220729 37.3232246,46.6652591 37.4579655,47.6084453 C37.4130518,47.6982726 37.3232246,47.8330134 37.1884837,47.8330134 C37.1884837,47.8330134 37.1884837,47.8330134 37.1884837,47.8330134 Z" id="Path" fill="#FFFFFF"></path>
                                        <path d="M19.0882917,4.94049904 C19.0433781,4.94049904 19.0433781,4.94049904 18.9984645,4.94049904 C16.7976967,4.13205374 12.3512476,3.68291747 9.20729367,3.59309021 C9.07255278,3.59309021 8.98272553,3.50326296 8.98272553,3.36852207 C8.98272553,3.23378119 9.07255278,3.14395393 9.20729367,3.14395393 C12.4410749,3.23378119 16.887524,3.68291747 19.178119,4.49136276 C19.3128599,4.53627639 19.3577735,4.67101727 19.3128599,4.80575816 C19.2679463,4.89558541 19.178119,4.94049904 19.0882917,4.94049904 Z" id="Path" fill="#FFFFFF"></path>
                                    </g>
                                </g>
                                <g id="Layer_5" transform="translate(38.625720, 160.341651)">
                                    <path d="M154.053743,52.5489443 C184.145873,52.5489443 209.252591,69.6161228 239.389635,69.6161228 C256.007678,69.6161228 271.233397,63.5078695 282.955854,52.3692898 L207.50096,0 L79.9462572,0 L0.359309021,51.9201536 C11.1834933,58.9266795 24.6126679,63.5976967 41.0959693,64.9001919 C89.3332054,68.6729367 111.610365,52.5489443 154.053743,52.5489443 Z" id="Path" fill="#A894D3"></path>
                                    <g id="Group" transform="translate(189.086372, 36.380038)">
                                        <polygon id="Path" fill="#FFFFFF" points="67.8195777 11.452975 20.6602687 11.452975 0.224568138 0.673704415 45.3627639 0.449136276"></polygon>
                                        <path d="M67.8195777,11.6775432 L20.6602687,11.6775432 C20.6153551,11.6775432 20.5704415,11.6775432 20.5704415,11.6326296 L0.134740883,0.853358925 C0.0449136276,0.808445298 0,0.718618042 0,0.583877159 C0,0.449136276 0.134740883,0.404222649 0.224568138,0.404222649 L45.3627639,0.179654511 C45.4076775,0.179654511 45.4525912,0.179654511 45.4525912,0.224568138 L67.909405,11.2284069 C67.9992322,11.2733205 68.0441459,11.3631478 68.0441459,11.4978887 C68.0441459,11.6326296 67.909405,11.6775432 67.8195777,11.6775432 Z M20.7051823,11.2284069 L66.8314779,11.2284069 L45.2729367,0.673704415 L1.07792706,0.898272553 L20.7051823,11.2284069 Z" id="Shape" fill="#333333" fill-rule="nonzero"></path>
                                    </g>
                                    <g id="Group" transform="translate(163.485605, 6.287908)">
                                        <polygon id="Path" fill="#FFFFFF" points="53.4472169 9.65642994 14.1927063 9.65642994 0.449136276 0.673704415 37.4579655 0.673704415"></polygon>
                                        <path d="M53.4472169,9.88099808 L14.1927063,9.88099808 C14.1477927,9.88099808 14.1028791,9.88099808 14.0579655,9.83608445 L0.314395393,0.853358925 C0.224568138,0.808445298 0.179654511,0.718618042 0.224568138,0.583877159 C0.269481766,0.494049904 0.359309021,0.404222649 0.449136276,0.404222649 L37.4579655,0.404222649 C37.5028791,0.404222649 37.5477927,0.404222649 37.5477927,0.449136276 L53.5370441,9.4318618 C53.6268714,9.47677543 53.671785,9.56660269 53.6268714,9.70134357 C53.6268714,9.79117083 53.5370441,9.88099808 53.4472169,9.88099808 Z M14.23762,9.4318618 L52.5489443,9.4318618 L37.3681382,0.898272553 L1.16775432,0.898272553 L14.23762,9.4318618 Z" id="Shape" fill="#333333" fill-rule="nonzero"></path>
                                    </g>
                                    <g id="Group" transform="translate(72.760077, 6.737044)">
                                        <polygon id="Path" fill="#FFFFFF" points="0.449136276 9.65642994 39.7036468 9.65642994 49.6295585 0.673704415 14.6418426 0.673704415"></polygon>
                                        <path d="M39.7036468,9.88099808 L0.449136276,9.88099808 C0.359309021,9.88099808 0.269481766,9.83608445 0.224568138,9.70134357 C0.179654511,9.61151631 0.224568138,9.52168906 0.314395393,9.4318618 L14.5071017,0.449136276 C14.5520154,0.404222649 14.596929,0.404222649 14.6418426,0.404222649 L49.6295585,0.404222649 C49.6295585,0.404222649 49.6295585,0.404222649 49.6295585,0.404222649 C49.7193858,0.404222649 49.8092131,0.449136276 49.8541267,0.538963532 C49.8990403,0.628790787 49.8541267,0.718618042 49.8092131,0.808445298 L39.8833013,9.79117083 C39.7934741,9.88099808 39.7485605,9.88099808 39.7036468,9.88099808 Z M1.21266795,9.4318618 L39.6138196,9.4318618 L49.0456814,0.898272553 L14.6867562,0.898272553 L1.21266795,9.4318618 Z" id="Shape" fill="#333333" fill-rule="nonzero"></path>
                                    </g>
                                </g>
                                <g id="Man_x5F_1_x5F_hand" transform="translate(79.946257, 139.232246)">
                                    <path d="M40.287524,26.0948177 C41.7696737,24.7024952 44.3297505,24.5677543 48.0575816,22.9059501 C48.4618042,22.7262956 49.2253359,22.4568138 49.8541267,22.9059501 C50.7523992,22.4568138 51.2015355,22.9059501 51.6506718,23.3550864 C52.5489443,22.9059501 53.5370441,23.4898273 53.5370441,23.4898273 C54.7946257,23.6694818 55.5581574,24.118618 56.5911708,25.1516315 C57.9385797,26.4990403 58.3428023,27.3074856 58.3428023,27.3074856 C58.3428023,27.3074856 57.6690979,27.9362764 57.0403071,27.8464491 C56.0971209,27.6667946 55.1539347,27.1727447 54.3454894,27.3973129 C54.3454894,27.3973129 48.6414587,32.9216891 45.1381958,33.0564299 C39.7485605,33.3259117 38.4011516,28.3854127 40.287524,26.0948177 Z" id="Path" fill="#8285C4"></path>
                                    <path d="M49.3600768,32.6072937 C49.3600768,32.6072937 24.5228407,50.2134357 18.1900192,48.9558541 C11.8571977,47.6982726 3.59309021,24.9270633 0.94318618,15.8095969 C-1.70671785,6.69213052 5.07523992,-6.60230326 11.7673704,4.7159309 C18.5044146,16.0341651 22.4568138,26.9481766 22.9059501,28.2955854 C23.3550864,29.6429942 22.5915547,29.7777351 22.9059501,30.0921305 C23.3550864,30.5412668 24.2533589,29.193858 24.7024952,29.193858 C25.6007678,29.193858 24.971977,30.6760077 25.8253359,29.5980806 C26.2295585,29.0591171 26.4990403,30.6760077 26.7685221,30.5861804 C26.9481766,30.5412668 27.2176583,29.8675624 27.4871401,29.8226488 C29.2836852,29.3285988 30.6760077,27.7566219 36.0207294,26.049904 C47.1143954,22.4119002 49.3600768,32.6072937 49.3600768,32.6072937 Z" id="Path" fill="#ED4A25"></path>
                                    <path d="M18.1900192,49.1804223 C18.1900192,49.1804223 18.1451056,49.1804223 18.1900192,49.1804223 C12.0817658,47.9677543 4.85067179,28.2506718 2.78464491,22.2322457 C2.73973129,22.0975048 2.78464491,22.0076775 2.9193858,21.9627639 C3.05412668,21.9178503 3.14395393,21.9627639 3.18886756,22.0975048 C11.3182342,45.6771593 16.7527831,48.4618042 18.2349328,48.7761996 C18.3696737,48.8211132 18.4145873,48.9109405 18.4145873,49.0456814 C18.3696737,49.090595 18.2798464,49.1804223 18.1900192,49.1804223 Z" id="Path" fill="#333333"></path>
                                </g>
                                <g id="Man_x5F_2_x5F_hand" transform="translate(270.829175, 204.357006)">
                                    <path d="M17.9654511,0 C17.9654511,0.898272553 17.0671785,1.79654511 23.3550864,4.49136276 C27.98119,6.46756238 29.6429942,6.28790787 29.6429942,6.28790787 C29.6429942,6.28790787 27.3973129,4.04222649 24.7024952,2.24568138 C22.0076775,0.449136276 17.9654511,0 17.9654511,0 Z" id="Path" fill="#8285C4"></path>
                                    <path d="M0.494049904,8.75815739 C0.494049904,8.75815739 0.0449136276,10.8241843 2.64990403,10.9140115 C5.0303263,11.0038388 6.10825336,11.1385797 8.26410749,12.2165067 C10.4199616,13.2944338 15.1808061,16.2587332 20.4357006,17.0671785 C24.8821497,17.7408829 27.3973129,17.0222649 33.5055662,16.6629559 C39.6587332,16.3036468 44.1051823,8.75815739 32.2928983,6.69213052 C24.1635317,5.29980806 20.1213052,1.97619962 17.5612284,1.6168906 C16.5731286,1.48214971 7.81497121,0.404222649 7.81497121,0.404222649 C7.81497121,0.404222649 7.41074856,1.21266795 8.21919386,2.02111324 C9.02763916,2.82955854 13.0698656,3.63800384 13.0698656,3.63800384 C13.0698656,3.63800384 9.83608445,2.82955854 7.77005758,2.82955854 C5.70403071,2.82955854 2.47024952,2.42533589 2.47024952,2.42533589 C2.29059501,3.00921305 2.06602687,4.04222649 2.87447217,4.44644914 C3.32360845,4.67101727 4.221881,5.07523992 4.221881,5.07523992 L0.359309021,4.80575816 C0.359309021,4.80575816 -0.449136276,6.15316699 0.898272553,6.87178503 C1.57197697,7.23109405 3.59309021,7.27600768 4.85067179,7.54548944 C6.10825336,7.81497121 7.09635317,8.443762 7.09635317,8.443762 L4.221881,8.1293666 L0.494049904,8.75815739 Z" id="Path" fill="#8285C4"></path>
                                    <g id="Group" transform="translate(28.295585, 3.593090)">
                                        <path d="M4.04222649,0.449136276 C0.898272553,5.92859885 0.0449136276,11.947025 0.628790787,18.2798464 C8.98272553,15.2706334 16.6180422,10.5097889 23.1305182,4.13205374 L4.04222649,0.449136276 Z" id="Path" fill="#FFFFFF"></path>
                                        <path d="M0.628790787,18.5044146 C0.494049904,18.5044146 0.404222649,18.4145873 0.404222649,18.2798464 C-0.224568138,11.3631478 0.898272553,5.47946257 3.86257198,0.314395393 C3.9074856,0.224568138 3.99731286,0.179654511 4.08714012,0.224568138 L23.1754319,3.9074856 C23.3101727,3.95239923 23.3550864,4.04222649 23.3550864,4.17696737 C23.3101727,4.31170825 23.2203455,4.35662188 23.0856046,4.35662188 L4.17696737,0.718618042 C1.34740883,5.74894434 0.269481766,11.4978887 0.853358925,18.2798464 C0.853358925,18.3696737 0.76353167,18.5044146 0.628790787,18.5044146 C0.628790787,18.5044146 0.628790787,18.5044146 0.628790787,18.5044146 Z" id="Path" fill="#333333"></path>
                                    </g>
                                    <path d="M24.5228407,4.76084453 C24.4779271,4.76084453 24.4779271,4.76084453 24.4330134,4.76084453 C23.1305182,4.221881 22.0525912,3.72783109 21.0644914,3.27869482 C19.9865643,2.78464491 19.0882917,2.33550864 18.3247601,2.1109405 C18.1900192,2.06602687 18.1451056,1.93128599 18.1900192,1.84145873 C18.2349328,1.70671785 18.3696737,1.66180422 18.459501,1.70671785 C19.2679463,1.93128599 20.1662188,2.38042226 21.2441459,2.87447217 C22.2322457,3.32360845 23.3101727,3.86257198 24.5677543,4.35662188 C24.7024952,4.40153551 24.7474088,4.53627639 24.7024952,4.67101727 C24.7024952,4.67101727 24.6126679,4.76084453 24.5228407,4.76084453 Z" id="Path" fill="#333333"></path>
                                    <path d="M36.8291747,18.1900192 C36.6944338,18.1900192 36.6046065,18.1001919 36.6046065,17.9654511 C36.424952,13.0698656 37.2333973,8.84798464 38.9401152,5.38963532 C38.9850288,5.29980806 39.1197697,5.25489443 39.2545106,5.29980806 C39.3443378,5.34472169 39.3892514,5.47946257 39.3443378,5.61420345 C37.63762,8.98272553 36.8740883,13.1147793 37.0537428,17.9654511 C37.0537428,18.1001919 36.9639155,18.1900192 36.8291747,18.1900192 C36.8291747,18.1900192 36.8291747,18.1900192 36.8291747,18.1900192 Z" id="Path" fill="#333333"></path>
                                </g>
                                <g id="Layer_7" transform="translate(199.416507, 144.172745)">
                                    <path d="M10.375048,31.0802303 L10.015739,31.0802303 C9.7462572,31.0802303 9.56660269,30.9005758 9.56660269,30.631094 C9.56660269,30.3616123 9.7462572,30.1819578 10.015739,30.1819578 L10.375048,30.1819578 C11.3182342,30.1819578 12.0817658,29.4184261 12.0817658,28.4752399 L12.0817658,28.340499 C12.0817658,28.0261036 11.8122841,27.7566219 11.4978887,27.7566219 L9.97082534,27.7566219 C9.70134357,27.7566219 9.52168906,27.5769674 9.52168906,27.3074856 C9.52168906,27.0380038 9.70134357,26.8583493 9.97082534,26.8583493 L11.4978887,26.8583493 C12.306334,26.8583493 12.9800384,27.5320537 12.9800384,28.340499 L12.9800384,28.4752399 C12.9800384,29.912476 11.8122841,31.0802303 10.375048,31.0802303 Z" id="Path" fill="#ED4A25"></path>
                                    <path d="M5.97351248,33.9547025 L5.65911708,33.9547025 C3.27869482,33.9547025 1.39232246,32.0234165 1.39232246,29.6879079 L1.39232246,25.8702495 L10.2852207,25.8702495 L10.2852207,29.6879079 C10.2403071,32.0683301 8.35393474,33.9547025 5.97351248,33.9547025 Z" id="Path" fill="#ED4A25"></path>
                                    <path d="M6.91669866,24.3431862 C6.91669866,24.3431862 2.33550864,23.3550864 2.33550864,20.4357006 C2.33550864,18.1451056 6.10825336,16.8426104 6.10825336,14.7316699 C6.10825336,12.6207294 0.404222649,11.3182342 0.404222649,7.36583493 C0.404222649,3.45834933 4.98541267,5.68434189e-14 8.26410749,5.68434189e-14 C11.5428023,5.68434189e-14 11.6775432,2.1109405 11.5428023,2.78464491 C11.3182342,3.72783109 10.375048,4.49136276 10.734357,5.07523992 C11.2284069,5.88368522 13.7884837,4.98541267 14.3274472,6.37773512 C14.8214971,7.68023033 12.8452975,8.66833013 12.8452975,9.29712092 C12.8452975,9.92591171 14.4621881,9.97082534 14.4621881,11.5877159 C14.4621881,14.5071017 3.99731286,19.2679463 3.99731286,21.3788868 C3.99731286,23.040691 6.91669866,24.3431862 6.91669866,24.3431862 Z" id="Path" fill="#FFFFFF"></path>
                                </g>
                                <g id="Layer_6" transform="translate(160.341651, 123.961612)">
                                    <path d="M2.24568138,0 C2.24568138,0 1.34740883,4.04222649 1.79654511,8.08445298 C2.24568138,12.1266795 5.38963532,15.2706334 5.38963532,15.2706334 C5.38963532,15.2706334 6.28790787,11.2284069 5.83877159,7.6353167 C5.38963532,4.04222649 2.24568138,0 2.24568138,0 Z" id="Path" fill="#FF6A52"></path>
                                    <path d="M0,16.6180422 C0,16.6180422 1.34740883,17.5163148 4.49136276,19.7619962 C7.6353167,22.0076775 10.3301344,22.9059501 10.3301344,22.9059501 C10.3301344,22.9059501 8.89289827,24.7474088 5.38963532,23.8042226 C0.449136276,22.4568138 0,16.6180422 0,16.6180422 Z" id="Path" fill="#FF6A52"></path>
                                    <path d="M11.9021113,13.9232246 C11.9021113,13.9232246 10.4648752,16.1239923 10.3301344,19.7170825 C10.1953935,22.9059501 12.7554702,25.6456814 12.7554702,25.6456814 C14.23762,21.5585413 14.1927063,17.606142 11.9021113,13.9232246 Z" id="Path" fill="#FF6A52"></path>
                                    <path d="M18.4145873,21.109405 C18.4145873,21.109405 16.168906,23.3550864 16.168906,26.9481766 C16.168906,29.6429942 18.4145873,32.3378119 18.4145873,32.3378119 C19.7619962,28.6998081 20.0763916,25.0168906 18.4145873,21.109405 Z" id="Path" fill="#FF6A52"></path>
                                    <path d="M8.53358925,26.049904 C8.53358925,26.049904 10.7792706,28.7447217 14.3723608,30.0921305 C17.9654511,31.4395393 18.6840691,31.5742802 18.6840691,31.5742802 C18.6840691,31.5742802 17.9654511,29.6429942 14.8214971,27.8464491 C11.6775432,26.049904 8.53358925,26.049904 8.53358925,26.049904 Z" id="Path" fill="#FF6A52"></path>
                                    <path d="M18.4145873,31.3047985 C18.3696737,31.3047985 18.3247601,31.3047985 18.2798464,31.2598848 C12.2165067,26.4990403 7.50057582,20.3907869 4.26679463,13.1147793 C4.221881,12.9800384 4.26679463,12.8902111 4.40153551,12.8003839 C4.53627639,12.7105566 4.62610365,12.8003839 4.7159309,12.9351248 C7.94971209,20.1662188 12.5758157,26.1846449 18.5942418,30.9005758 C18.6840691,30.9904031 18.7289827,31.125144 18.6391555,31.2149712 C18.5493282,31.3047985 18.5044146,31.3047985 18.4145873,31.3047985 Z" id="Path" fill="#FF6A52"></path>
                                    <path d="M20.6602687,31.2149712 C20.6602687,31.2149712 20.6153551,31.2149712 20.6153551,31.2149712 C20.4806142,31.1700576 20.4357006,31.0353167 20.4806142,30.9454894 C20.4806142,30.9005758 22.1873321,25.5109405 26.903263,23.1754319 C32.3827255,20.4357006 36.5596929,24.0737044 36.6046065,24.118618 C36.6944338,24.2084453 36.6944338,24.3431862 36.6046065,24.4330134 C36.5147793,24.5228407 36.3800384,24.5228407 36.2902111,24.4330134 C36.2452975,24.3880998 32.2928983,20.9746641 27.1278311,23.5796545 C22.5915547,25.8702495 20.9746641,31.0353167 20.9746641,31.0802303 C20.8399232,31.1700576 20.750096,31.2149712 20.6602687,31.2149712 Z" id="Path" fill="#FF6A52"></path>
                                    <path d="M43.5213052,26.4990403 C43.5213052,26.4990403 41.5451056,24.3880998 38.9850288,23.2203455 C36.424952,22.0076775 33.2809981,22.9059501 33.2809981,22.9059501 C33.2809981,22.9059501 35.2571977,25.0168906 37.5477927,26.049904 C39.8383877,27.0829175 43.5213052,26.4990403 43.5213052,26.4990403 Z" id="Path" fill="#FF6A52"></path>
                                    <path d="M29.3285988,15.674856 C29.3285988,15.674856 27.5769674,16.6629559 26.1846449,19.0882917 C24.971977,21.2441459 25.7804223,24.0737044 25.7804223,24.0737044 C28.2057582,21.7831094 29.5980806,19.0433781 29.3285988,15.674856 Z" id="Path" fill="#FF6A52"></path>
                                    <path d="M30.8107486,26.3642994 C30.8107486,26.3642994 29.5082534,27.9362764 26.8583493,28.8794626 C24.5228407,29.6879079 21.8729367,28.4303263 21.8729367,28.4303263 C24.6126679,26.4092131 27.5769674,25.5558541 30.8107486,26.3642994 Z" id="Path" fill="#FF6A52"></path>
                                    <path d="M15.2257198,65.5738964 L22.8610365,65.5738964 C27.0829175,65.5738964 29.6429942,61.9808061 28.7447217,57.893666 L23.8042226,30.5412668 L14.3723608,30.5412668 L9.34203455,57.893666 C8.53358925,61.9808061 11.0038388,65.5738964 15.2257198,65.5738964 Z" id="Path" fill="#5E35B1"></path>
                                </g>
                                <g id="Layer_8" transform="translate(79.946257, 185.044146)" fill="#6D359E">
                                    <path d="M5.29980806,13.6986564 L4.67101727,13.6986564 C2.20076775,13.6986564 0.269481766,10.734357 0.269481766,6.91669866 L0.269481766,6.60230326 C0.269481766,4.62610365 1.34740883,3.05412668 2.69481766,3.05412668 L5.29980806,3.05412668 C5.65911708,3.05412668 5.97351248,3.36852207 5.97351248,3.72783109 C5.97351248,4.08714012 5.65911708,4.40153551 5.29980806,4.40153551 L2.69481766,4.40153551 C2.20076775,4.40153551 1.6168906,5.34472169 1.6168906,6.60230326 L1.6168906,6.91669866 C1.6168906,9.88099808 3.00921305,12.3512476 4.67101727,12.3512476 L5.29980806,12.3512476 C5.65911708,12.3512476 5.97351248,12.665643 5.97351248,13.024952 C5.97351248,13.384261 5.65911708,13.6986564 5.29980806,13.6986564 Z" id="Path"></path>
                                    <path d="M10.734357,20.6602687 L14.3274472,20.6602687 C18.5493282,20.6602687 20.2111324,17.2019194 20.2111324,12.9800384 L20.2111324,0 L4.85067179,0 L4.85067179,12.9800384 C4.85067179,17.2019194 6.51247601,20.6602687 10.734357,20.6602687 Z" id="Path"></path>
                                </g>
                            </g>
                        </g>
                    </g>
                </g>
            </g>
        </g>
    </g>
</svg>